<?xml version="1.0" encoding="utf-8"?>
<!-- Generator: Adobe Illustrator 22.0.1, SVG Export Plug-In . SVG Version: 6.00 Build 0)  -->
<svg version="1.1" id="레이어_1" xmlns="http://www.w3.org/2000/svg" xmlns:xlink="http://www.w3.org/1999/xlink" x="0px"
	 y="0px" viewBox="0 0 15653.4 10209" style="enable-background:new 0 0 15653.4 10209;" xml:space="preserve">
<style type="text/css">
	.st0{fill:none;stroke:#000000;stroke-width:19.7141;stroke-miterlimit:10;}
</style>
<g>
	<path d="M1666.7,5726.5c-3.8-2.5-10.1-3.6-19.8-3.6c-10.9,0-18.4,1.6-23,4.8c-1.6,1.1-6.1,3-18.4,3h-41.1
		c-10.4,0-12.7-1.5-12.9-1.6c-0.7-0.5-1.5-2.4-1.5-6.1l0.9-25.9v-5.7c0-1.5,0.1-3,0.3-5.1c0-3.6-0.6-6.2-2-8.2
		c-1.5-2.1-4-3.6-8.6-4.8c-5.6-1.1-10.6-1.7-15-2c-4.2-0.2-10.1-0.3-17.9-0.3c-3.4,0-6.4,0.6-8.9,1.7c-5.1,2.3-5.8,5.8-5.8,7.8
		c0,2.2,1,6.1,7.5,7.7c12.5,3.4,17.3,5.5,19,6.4c0.2,0.2,0.9,0.6,1.1,1.7l0.6,26.8c0,9.3,2.9,16.2,8.6,20.2c6.3,4.6,17.1,6.9,33,6.9
		h81.1c13.6,0,18.2-1.2,20.5-2c5-1.9,7.8-5.8,7.8-10.8C1672.1,5731.1,1669.1,5727.9,1666.7,5726.5z"/>
	<path d="M1560.9,5653.2c10.4-9.2,15.6-20.8,15.6-34.5c0-13.7-4.4-25.2-13.2-34.2c-8.2-8.6-19.1-13.6-32.5-15.1
		c0.1-0.4,0.1-0.8,0.1-1.2c0.3-2.2-0.2-4.5-1.5-6.6c4.7-0.2,10.5-0.5,17.1-0.9c13.3-0.8,22-1.2,26.3-1.2c8.3,0,13.8-0.5,17.4-1.6
		c5-1.6,7.9-5.4,7.9-10.3c0-7.9-4.6-10.9-7.4-12c-3.4-1.4-8.1-2.1-14.1-2.1c-1.7,0-3.5-0.1-5.4-0.3c-2.3-0.2-3.8-0.3-4.5-0.3
		c-5.5,0-9.6,0.8-12.6,2.6c-5.1,3.1-11.5,5-19.1,5.8c-8.3,0.8-17.7,1.6-28.2,2.3c-10.4,0.7-21.5,1.1-33.4,1.1
		c-8.7,0-14.8-0.2-18.4-0.5c-3.6-0.3-8.6-1.1-14.5-2.2l-10.2-2.9l-7,11.3l3.7,2.8c5.9,4.4,12.7,8.7,20.6,13c4.7,2,8,2.9,10.7,2.9
		c2.1,0,4.9-0.7,9.1-2.1c3.3-1.2,7-2.1,11-2.8c5.1-0.6,10.5-1.1,16.3-1.5c4.6-0.3,9.1-0.5,13.5-0.6c0.4,1.3,0.7,2.6,0.7,3.8
		c0,3.4-0.8,3.5-1.5,3.6c-15.1,1.4-27.1,7.1-35.5,17.1c-8.3,9.9-12.5,21.3-12.5,34.1c0,13,5.3,24.3,15.6,33.7
		c10.2,9.2,24.1,13.8,41.5,13.8C1535,5668.1,1549.9,5663.1,1560.9,5653.2z M1488.3,5616.6c0-7.6,2.5-14,7.8-19.6
		c5.1-5.5,12.3-8.1,22.1-8.1c9.5,0,16.8,2.8,22.2,8.6c4.9,5.3,7.3,11.5,7.3,19.1c0,7.8-2.3,14.1-7,19.1c-5.4,6-12.8,8.9-22.5,8.9
		c-9.8,0-17-2.7-22.1-8.1C1490.9,5630.9,1488.3,5624.4,1488.3,5616.6z"/>
	<path d="M1685.3,5596c-7.9,0-13.6,1.6-17.7,4.8c-0.3,0.2-3.2,2.2-18.5,2.5l1.2-92.9c0-2.3,0.2-4.8,0.6-7.7c0.5-3.5,0.7-5.6,0.7-6.2
		c0-2.6-0.6-4.8-1.7-6.7c-1-1.6-2.7-3.4-5.9-5.9c-3.9-2.6-8.7-5.2-14.5-7.8c-5.8-2.6-11.3-4.6-16.9-6c-2.9-0.5-5-0.7-6.4-0.7
		c-9.9,0-11,5.3-11,7.6c0,3.8,3.2,6.4,6,8.3c10.2,6.8,14.5,10.8,16.2,12.9c1.1,1.4,1.6,2.8,1.6,4.5l1.5,153.7
		c0,15.7,0.4,26.5,1.3,33.2c0.8,6.2,2.5,13.4,8.4,14.6l1.2,0.2l1.2-0.3c6.6-1.8,9.6-9.6,11.3-15.3c3-10.8,4.5-27,4.5-49.2l0.5-16.4
		c4.4,0.1,32,0.6,36.2,0.6c10.1,0,13.8-1.1,15.7-2c2.7-1.2,6.1-3.9,7-10.5c0-4.3-1.6-7.8-4.8-10.2
		C1699.4,5598.4,1693.8,5596.8,1685.3,5596z"/>
	<path d="M1489.2,5524.6c3.2,2.3,5.8,3.9,7.8,4.9c2.6,1.3,5,1.9,7.3,1.9h0.2l0.2,0c2.1-0.2,4-0.3,5.7-0.3c11.3,0,23-0.5,35.3-1.6
		c13.4-1.8,16.2-7.9,16.2-12.8c0-4.7-2.4-12.5-18.8-12.5l-32.4,0.3c-8.7,0-15.6-0.9-20.2-2.4l-11.4-5l-6,11.1l2,2.6
		C1478.7,5515.5,1483.4,5520.1,1489.2,5524.6z"/>
	<path d="M1967.1,5483.8c-4.5-2.8-9.1-5.3-13.8-7.5c-4.8-2.3-10.5-4.3-17.5-6.1c-2.9-0.5-5-0.7-6.4-0.7c-9.9,0-11,5.3-11,7.6
		c0,3.8,3.2,6.4,5.9,8.3c10.7,7.3,14.7,11,16.3,12.9c1.1,1.4,1.6,2.8,1.6,4.6l0.8,44.1c-4.7,0.7-9.6,1.4-14.6,2.1
		c-6.4,0.8-13.1,1.2-20.1,1.2c-6.1,0-11.2-0.1-15.2-0.3c-4.1-0.2-8.8-0.5-12.9-0.7c1.7-3.9,3.2-7.9,4.7-11.9
		c2.6-2.3,4.6-4.3,6.1-5.9c2.4-2.7,3.6-5.6,3.6-8.5c0-3.3-1.6-9-12.3-10.6l-18.6-3.1l-7.4,5.7c-8.7,0.7-17.2,1.3-25.5,1.7
		c-8.8,0.4-19.1,0.6-31,0.6h-8.7c-3.6,0-7.3-0.1-11-0.3c-3.7-0.2-7.5-0.6-11-1.1l-10.8-2.6l-4.5,11.8l3.1,2.3
		c7.2,5.5,16.1,10.1,26.7,13.8c6.3,1.8,8.5,2.1,9.8,2.1c2.2,0,4.7-0.7,7.9-2.1c2.9-1.4,5.7-2.4,8.1-2.9l22.8-2.2
		c8.3-0.7,15.5-1.2,21.7-1.4c-6.3,22.4-19.1,44.6-38.1,65.9c-18.7,20.9-42.6,40.2-70.9,57.2l-4.1,2.4l6.2,12.4l4.5-2.1
		c18.8-8.5,35.6-18,50-28c19.1-13,35.4-27.6,48.4-43.4c9.1-11,17.1-23,23.7-35.9c2.8,1.7,5.2,3.2,7.5,4.4c3.6,1.9,7.6,3.5,11.9,4.8
		c6.2,1.8,7.7,1.9,8.7,1.9c2,0,4.1-0.7,6.8-2.2c1.4-0.8,2.8-1.3,3.6-1.5l31.2-3.4l0.2,35.6c-10.1,1.2-15.8,1.9-17.3,1.9
		c-8.3,0.8-16.5,1.2-24.6,1.2h-17.3c-4.2,0-7.9-0.3-10.7-0.8l-10.1-2.8l-4.6,12l3.2,2.3c3.3,2.4,6.7,4.5,10.1,6.3
		c3.3,1.7,7.6,3.6,13.1,5.6c3.2,1,5.8,1.5,8,1.5c1.9,0,4-0.6,7-2c1.7-0.8,3.6-1.4,5.4-1.7c10.9-1.4,19.4-2.5,25.7-3.1
		c4.2-0.4,8.3-0.7,12.2-0.8c0.1,16.1,0.5,27,1.3,33.5c0.8,6.9,2.5,14.1,8.4,15.2l1,0.2l1-0.2c7.3-1.4,10.4-10,12-16.4
		c3-11.6,4.5-29.5,4.5-54.4l1.9-89.9c0-2.2,0.2-4.7,0.6-7.3c0.5-3.3,0.7-5.5,0.7-6.6c0-2.6-0.6-4.9-1.6-6.6
		C1972.2,5488.3,1970.5,5486.6,1967.1,5483.8z"/>
	<path d="M1924,5659.2c0.5-0.8,0.8-1.4,0.9-1.9c1.4-3.3,0.8-6.7-1.7-9.5c-1.6-1.8-4.3-3.5-8.4-5.3c-4-1.7-7.4-2.6-10.4-2.6
		c-9,0-9.4,6.1-9.4,7.3c0,3,2.1,5.1,3.8,6.5c2,1.6,2.6,2.5,2.7,2.5c-0.1,0.3-0.3,1-1.1,2.3c-16.1,0.3-29.3,5.7-39.3,16.1
		c-9.2,9.6-13.8,21.3-13.8,34.8c0,13.6,4.9,25.1,14.6,34.4c10.6,9.9,25.1,15,43.1,15c19.1,0,34.4-4.7,45.7-14
		c11.5-9.5,17.3-21.1,17.3-34.4c0-13.8-4.3-25.7-12.7-35.3C1947.3,5666.3,1936.8,5660.9,1924,5659.2z M1931.4,5726.2
		c-6.1,6.1-14.3,9-25.2,9c-9.9,0-17.2-2.7-22.4-8.4c-5.3-5.8-7.8-12.5-7.8-20.5c0-7.7,2.7-14.2,8.3-19.7c5.6-5.6,13.2-8.3,23.5-8.3
		c10.2,0,18,2.9,23.9,9c5.1,5.3,7.5,11.7,7.5,19.7C1939.2,5714.7,1936.6,5721,1931.4,5726.2z"/>
	<path d="M2180.8,5635.5c4-1.4,6.5-4.7,6.7-8.4c0.9-3.6-0.3-7-3.3-9.4c-1.4-1.1-3.3-2.1-6.1-3.1l9.1-56.2c3.7,2.4,6.9,4.3,9.6,5.8
		c3.4,1.8,7,3.3,10.9,4.6c4.2,1.3,7.4,1.9,10,1.9c1.9,0,4-0.6,6.6-1.9c1.5-0.8,3-1.3,3.7-1.5l24.5-3.5l0.3,40
		c-2.9,0.5-6.5,1-10.7,1.4c-6.5,0.7-12.4,1.1-17.9,1.1h-17c-4.4,0-8.2-0.3-10.9-0.7l-9.8-2.9l-4.6,12l3,2.3c6,4.6,13.7,8.7,23.3,12
		c3.2,1,5.8,1.5,8,1.5c1.8,0,3.9-0.5,6.8-1.8c1.8-0.8,4.2-1.5,7-2c3.1-0.6,7-1.3,11.6-2c3.2-0.5,7-1,11.3-1.4
		c0.1,28.8,0.5,48.1,1.2,57.4c1,11.7,2.7,18.8,8.4,19.9l1,0.2l1-0.2c7.3-1.4,10.4-10.2,12.1-16.7c3-11.8,4.5-30.3,4.5-56.3l1.9-117
		c0-2.2,0.2-4.7,0.6-7.3c0.5-3.3,0.7-5.5,0.7-6.6c0-2.6-0.6-4.9-1.6-6.6c-1-1.6-2.7-3.4-6-6.1c-4.5-2.8-9.1-5.3-13.8-7.5
		c-4.8-2.3-10.5-4.3-17.5-6.1c-2.9-0.5-5-0.7-6.4-0.7c-9.9,0-11,5.3-11,7.6c0,3.8,3.2,6.4,5.9,8.3c10.7,7.3,14.7,11,16.3,12.9
		c1.1,1.4,1.6,2.8,1.6,4.6l0.8,41.2c-2.4,0.5-5.5,1-9,1.4c-5.8,0.7-12.2,1-19.2,1h-8.3c-8.4,0-15.4-0.3-19.8-0.7l-3.3-1
		c1.7-2.7,2.5-5.1,2.5-7.4c0-3.4-1.6-9.3-12.5-11l-19-2.4l-8.3,6.1c-8,0-15.7,0.3-23.2,0.9c-20.3,1.6-31,2.4-31.8,2.5
		c-5.2,0-8-0.5-9.4-1c-2.9-0.9-4.9-1.5-6.1-1.7c-5.2-0.9-11.5-1.3-19.1-1.3l-6,0.1c-1.6,0.3-2.8,0.5-3.6,0.5c-3.2,0-6.1,0.7-8.7,2.3
		c-3.4,2-5.1,4.6-5.1,7.5c0,1.9,0.8,6.4,8.1,8.1c9.7,2,13.3,3.7,15,4.7c0.7,0.4,1.4,1,1.7,1.9l7.4,76.5c0.9,8.1,2,13.1,3.4,16
		c2.7,5.6,7.1,6.5,9.4,6.5l0.5,0c8.1-0.8,11.3-9.1,12.7-14.9l67.3-1.8C2174.1,5636.9,2178.2,5636.5,2180.8,5635.5z M2154.9,5616.8
		c0,0-0.7,0.3-2.7,0.3c-6.4,0-18.9,0.5-37.4,1.5c-5,0.3-9.4,0.5-13.1,0.6l-3.5-65.6c7.7-0.2,18-0.8,30.9-1.8
		c12.1-0.9,21.5-1.5,28.1-1.7L2154.9,5616.8z"/>
	<path d="M2288.4,5726.5c-3.8-2.5-10.1-3.6-19.8-3.6c-10.9,0-18.4,1.6-23,4.8c-1.6,1.1-6.1,3-18.4,3h-41.5c-9.7,0-11.8-1.9-12-2.1
		c-0.2-0.2-2.1-2.3-2.1-12.2l0.6-29.2v-5.7c0-1.5,0.1-3,0.3-5.1c0-6.7-3.6-11.4-10-12.9c-4.2-1-9.6-1.7-16-2.1
		c-6.2-0.4-12-0.6-17.2-0.6c-3.4,0-6.4,0.6-8.9,1.7c-5,2.3-5.8,5.8-5.8,7.8c0,5,5.2,7.1,7.5,8c14.2,3.8,17.7,5.4,19.7,7.9l0.9,30.5
		c0,12.4,2.7,20.8,8.2,25.5c6.2,5.4,17,8.1,33.1,8.1h81.4c13.6,0,18.2-1.2,20.5-2c4.9-1.9,7.8-5.8,7.8-10.8
		C2293.8,5731.1,2290.8,5727.9,2288.4,5726.5z"/>
</g>
<g>
	<path d="M1341.4,3656.8l-2.5-0.8c-5.5-1.9-13.8-4.8-27.9-6.9c-2.8,0.2-11.4,1-11.4,7c0,3.1,2.6,5.6,7.5,7.4
		c14.4,6.3,18.5,11.2,18.7,12.5v188c0,3.5,0,14.1,7.2,14.1c3,0,5.7-2.1,8.3-6.5c4.8-10.2,6.1-17.4,6.1-60.1l0.2-139.3
		c0-1.1,0.2-2.1,0.3-3c0.2-1.2,0.4-2.3,0.4-3.3C1348.3,3661.5,1346.2,3658.7,1341.4,3656.8z"/>
	<path d="M1276,3685.1c-3.7-0.9-16.5-3.8-25.2-3.8c0,0-0.1,0-0.2,0c-2.9,0.4-10.7,1.5-10.7,6.9c0,2.3,1.5,5.4,8,6.8
		c8.7,3.2,12.7,6.2,13.1,6.2v25.8l-50.4,1.4v-21c0-0.8,0.2-1.5,0.3-2.3c0.2-0.9,0.4-1.8,0.4-2.9c0-6.2-6.6-7.5-10.7-8.4
		c-7.9-1.2-14.7-1.9-23.7-2.3c-5.5,1.3-10.8,2.9-10.8,7.4c0,5,6.6,6.5,9.2,7.1c10,3,12.5,6,12.6,6.2l0.5,92.1
		c0.1,3.9,0.5,15.8,8.2,15.8c6,0,10.6-9,12.4-15.9c15.1-0.4,37.2-0.8,51-1l1.6,0c0.9,6.9,3.4,10.3,7.6,10.3c7.4,0,12.2-12.5,13.1-25
		c0.3-4.6,0.4-11.7,0.5-18.3l0.2-9.9l0-60.4c0.1-1.1,0.3-2.1,0.5-3c0.2-1.1,0.5-2.2,0.5-3.3C1284,3688.6,1280.3,3686.6,1276,3685.1z
		 M1210.2,3789.4l0.4-46.1l50.4-1.4l0.4,46.6L1210.2,3789.4z"/>
	<path d="M1608.8,3722.8c7.3,0,11.2-4.7,11.2-9.1c0-10.5-13.6-10.5-18.1-10.5c-9.3,0-12.4,1.6-15.6,3.7c-1.3,0.9-2.3,1.6-4.4,1.9
		c-3.1,0.1-5.5,0.3-7.7,0.4l0.4-35.1c0-1.9,0.2-3.4,0.4-4.6c0.2-1.2,0.3-2.1,0.3-3c0-6.1-5.2-8.3-10.6-10.1
		c-9.4-2.7-19.2-4.9-26.8-6c-3.1,0-12.4,0-12.4,6.5c0,4.1,4.7,6.4,8,7.6c10.2,4.5,17.4,8.9,18.2,8.9c0,0,0,102.4,0,102.4
		c0,11.5,2.7,17.4,7.9,17.4c5.2,0,11.1-7.5,13.2-22l35.7-0.2c6.4-0.3,11.3-4.3,11.3-9.4c0-10-13.3-10-18.3-10
		c-10,0-13.1,1.4-16.2,3.3c-1.2,0.8-2.1,1.3-3.7,1.6c-2.3,0-4.9,0.1-7.2,0.3c-0.2,0-0.3,0-0.5,0v-33.5L1608.8,3722.8z"/>
	<path d="M1513.4,3727.6c0-15.9-9.9-34.7-37.3-42.1c1-1.5,2.1-3.2,2.1-5.4c0-6.8-11.9-11-18.3-11c-6.4,0-6.7,4.4-6.7,5.3
		c0,2.1,1.2,4.2,4.5,7.9c-0.1,0.4-0.9,1.3-3.5,1.7c-33.7,5-45.6,26.8-45.6,44c0,26,21.7,44.1,52.8,44.1
		C1493.9,3772.2,1513.4,3749.6,1513.4,3727.6z M1460.8,3754.7c-21,0-30.6-13.7-30.6-26.4c0-13.4,9.5-26.8,30.6-26.8
		c21.2,0,30.9,13.9,30.9,26.8C1491.7,3741.1,1482,3754.7,1460.8,3754.7z"/>
	<path d="M1536.5,3791.4c0.7-1.2,1.3-2.5,1.3-4.2c0-7-14.8-12-19.5-12c-4.6,0-6.7,2.9-6.7,5.6c0,2.3,1.4,4.7,3.3,5.9
		c1.2,1.2,1.7,2.5,1.5,3.3c-29.9,4.2-43.3,23.9-43.3,41.7c0,21.1,16.9,42.5,49.3,42.5c32.8,0,50.5-21.8,50.5-42.2
		C1572.8,3817.1,1563.2,3798.3,1536.5,3791.4z M1523,3855.4c-20.1,0-29.2-12.8-29.2-24.7c0-12.1,9.1-25.2,29.2-25.2
		s29.2,13.1,29.2,25.2C1552.2,3842.6,1543.1,3855.4,1523,3855.4z"/>
	<path d="M1823.2,3823.5c-5.3,0-7.8,1-10.7,2.1c-2.6,1-5.9,2.3-12.9,3.3l-18.9,0.9c-11,0.5-18.2,0.9-24.5,1l0.6-35.5
		c0-0.8,0.2-1.5,0.3-2.3c0.2-0.9,0.4-1.8,0.4-2.9c0-7-7.1-8.4-28-10.5c-2.6,0.1-10.6,0.5-10.6,6.3c0,2.7,2.5,5.1,5.9,6.1
		c6.9,3.5,9.2,5.2,9.4,6.7v32.3h-0.2c-10.4,0.2-19.7,0.4-28.3,0.4c-24.3,0-42.3-1.2-59.8-3.9c-1.4-0.3-2.7-0.3-3.8-0.3
		c-7.3,0-7.7,4.6-7.7,5.6c0,8.4,31.6,19,35.8,19c3.1,0,5.4-0.9,8-2c2.1-0.9,4.8-2,8.4-2.9c20-1.3,50.5-2.8,82.3-2.8
		c25.7,0,49.7,1,69.8,2.8h2.4c9.4,0,13.6-4.6,13.6-9.1C1854.8,3823.9,1826.4,3823.5,1823.2,3823.5z"/>
	<path d="M1663.1,3690.6c10.4,4.1,15.9,7.2,16.5,8.7l0.2,49.2c0.3,13.8,11.8,21.3,22.6,21.3c0,0,21.1,0.2,30.5,0.2
		c29.9,0,68.7-0.2,79.4-0.9c8.6,0,13.1-4.9,13.1-9.8c0-1.1-0.5-10.8-17.9-10.8c-12.4,0-16.7,2.2-20.5,4.1c-2.8,1.4-5,2.5-11.3,2.7
		c-13.7,0.5-29.9,0.7-44.1,0.7c-16.4,0-27.2,0-28.7-1.4c-0.3-0.5-0.3-2.4-0.3-3.7l0.1-53c0.8-0.2,1.8-0.4,1.3-0.5
		c7.2-0.2,16.8-0.3,27.7-0.4c21.9-0.3,49.3-0.7,74.1-1.5c10.9,0,14.8-5.3,14.8-9.8c0-5.2-5.3-10.8-15-10.8h-2.1
		c-14.1,0-17.8,1.5-21.8,3.8c-2.4,1.4-5.2,3-16.7,3.8l-63.8,1c-5.8-2.3-17.5-5.2-33.3-6.2c-2.9,0.1-11.8,0.5-11.8,6.7
		C1656.1,3688,1660.1,3690.1,1663.1,3690.6z"/>
</g>
<g>
	<path d="M363.3,5483.6c-9.1,0-12.3,1.5-15.8,3.6c-1.8,1.1-3.3,2-6.7,2.5h-7.9v-82.1c0-1.8,0.2-3.2,0.4-4.4c0.2-1.2,0.3-2.2,0.3-3.2
		c0-5.5-4.4-7.9-8.9-9.6c-6-1.9-15.7-4.6-28.5-6.6c-4.1,0.1-13.7,0.4-13.7,6.7c0,2.8,2.3,5.1,7.2,6.9c6.1,2.7,18.7,8.4,20,10.3V5598
		c0,3.7,0,14.8,7.5,14.8c3.1,0,6-2,9.1-6.7c4.2-10.4,5.9-20.6,6.2-36.4l0.2-64.7h37c7.8,0,11.9-5,11.9-10
		C381.6,5483.6,367.8,5483.6,363.3,5483.6z"/>
	<path d="M220,5432.8h3.8c12.6,0,25.6,0,31.8-1.7c6.2-2.7,7.5-6.4,7.5-9c0-5-4.9-8.8-13.3-9c-4.5,0.2-9,0.4-13.1,0.4
		c-10.2,0-19.3-0.8-27.1-2.2c-3.7-1.3-6.5-1.8-8.6-1.8l-5.6,0.9v3.9C195.5,5420.7,210.7,5430.8,220,5432.8z"/>
	<path d="M262.8,5511.3c-4.6-2.3-9.4-4.6-15.9-11.4c11.9-12.9,21.3-25.1,29.4-38c0.6-0.9,1.4-1.8,2.2-2.7c1.9-2.2,3.7-4.2,3.7-6.9
		c0-6.5-8.9-6.5-14.8-6.5c-7.4,0-9.7,0.7-12.2,1.8c-1,0.4-1.9,0.8-4,1.1c-13.8,1.3-32,2.1-48.6,2.1c-11.2,0-19.4-0.3-24.2-0.9
		c-3.1-0.5-5.5-0.7-7-0.7c-5.7,0-6.5,3-6.5,4.8c0,7.2,24.5,15,27.5,15c2.2,0,3.7-0.8,5-1.4c1.1-0.6,2.3-1.2,4.1-1.6
		c0,0,39.9-2.8,47.6-3.4c-21.4,37.2-59.7,69-88.7,89.5c-6.4,3.8-6.4,6.5-6.4,7.4l0.9,4.6h3.9c8.7,0,52.6-28.5,78.1-54
		c7.4,7.3,14.2,15.1,20.4,22c6.2,7,11.5,13,15.8,16.9c2.4,2.4,5.4,3.7,8.4,3.7c4.9,0,8.4-3.5,8.4-8.6c0-3.6-1.5-7.4-4.4-11.6
		C276.1,5517.9,269.6,5514.7,262.8,5511.3z"/>
	<path d="M540.4,5384.8c-5.9,0.6-13.2,1.3-13.2,6.9c0,3.6,3.7,5.7,8.7,8c17.5,7.6,20,11.1,20.2,12.1v63.4
		c-12.7,3.9-31.4,7.7-45.9,9.9c5.1-13.9,12.7-36.3,17.1-52.2c0.3-0.8,1.4-2.1,2.3-3.1c1.8-2.1,3.6-4.3,3.6-7c0-6.7-8.3-7.2-21.9-7.2
		c-4.8,0-6.3,0.3-8,0.9c-0.6,0.2-1.1,0.4-2.7,0.5c-14.3,1.8-46.1,2.8-49.2,2.8c-9.8,0-17.9-0.6-25.3-1.8c-2.3-0.6-4.1-0.6-5.2-0.6
		c-5.7,0-6,4-6,4.9c0,7.5,25.4,16.2,28.5,16.2c2.5,0,4.2-0.9,5.6-1.8c1.3-0.7,2.6-1.5,4.8-2c9.4-1.1,21.8-1.9,32.6-2.7
		c6-0.4,11.6-0.8,16-1.2c-1.2,18.4-4.9,43.3-8.4,56.8c-32.2,5.3-49.1,6.4-57.7,6.4c-13.1,0-24.8-1.5-29.9-2.6
		c-1.3-0.3-2.7-0.5-3.5-0.5c-4.1,0-6,2.6-6,5.1c0,7.5,30.6,20,34.9,20c2.7,0,4.5-1,6.1-1.9c1.3-0.7,2.7-1.5,5.3-2l2.7-0.5
		c5.6-1.1,14-2.7,21.5-3.8v65.3c0,11.6,4.5,13.4,7.2,13.4c4.5,0,8.1-5.1,10.9-15.3c2.8-11.2,4.5-43.7,4.2-67.2
		c19.9-3.5,47.9-10.2,66.4-16.6V5594c0,5,0,18.3,7.7,18.3c4,0,6.8-3.8,9.4-8.3c3-9.1,4.8-21.7,5.2-37.4l0.5-157.2
		c0-1.1,0.3-2.2,0.7-3.3c0.4-1.2,0.8-2.4,0.8-3.9C580.1,5395.2,573.3,5392.1,540.4,5384.8z"/>
	<path d="M817.8,5558.4c-5.3,0-7.8,1-10.7,2.1c-2.6,1-5.9,2.3-12.9,3.3l-18.9,0.9c-11,0.5-18.2,0.9-24.5,1l0.6-35.5
		c0-0.8,0.2-1.5,0.3-2.3c0.2-0.9,0.4-1.8,0.4-2.9c0-7-7.1-8.4-28-10.5c-2.6,0.1-10.6,0.5-10.6,6.3c0,2.7,2.5,5.1,5.9,6.1
		c6.9,3.5,9.2,5.2,9.4,6.7v32.3h-0.2c-10.4,0.2-19.7,0.4-28.3,0.4c-24.3,0-42.3-1.2-59.8-3.9c-1.4-0.3-2.7-0.3-3.8-0.3
		c-7.3,0-7.7,4.6-7.7,5.6c0,8.4,31.6,19,35.8,19c3.1,0,5.4-0.9,8-2c2.1-0.9,4.8-2,8.4-2.9c20-1.3,50.5-2.8,82.3-2.8
		c25.7,0,49.7,1,69.8,2.8h2.4c9.4,0,13.6-4.6,13.6-9.1C849.3,5558.8,821,5558.4,817.8,5558.4z"/>
	<path d="M657.7,5425.5c10.4,4.1,15.9,7.2,16.5,8.7l0.2,49.2c0.3,13.8,11.8,21.3,22.6,21.3c0,0,21.1,0.2,30.5,0.2
		c29.9,0,68.7-0.2,79.4-0.9c8.6,0,13.1-4.9,13.1-9.8c0-1.1-0.5-10.8-17.9-10.8c-12.4,0-16.7,2.2-20.5,4.1c-2.8,1.4-5,2.5-11.3,2.7
		c-13.7,0.5-29.9,0.7-44.1,0.7c-16.4,0-27.2,0-28.7-1.4c-0.3-0.5-0.3-2.4-0.3-3.7l0.1-53c0.8-0.2,1.8-0.4,1.3-0.5
		c7.2-0.2,16.8-0.3,27.7-0.4c21.9-0.3,49.3-0.7,74.1-1.5c10.9,0,14.8-5.3,14.8-9.8c0-5.2-5.3-10.8-15-10.8h-2.1
		c-14.1,0-17.8,1.5-21.8,3.8c-2.4,1.4-5.2,3-16.7,3.8l-63.8,1c-5.8-2.3-17.5-5.2-33.3-6.2c-2.9,0.1-11.8,0.5-11.8,6.7
		C650.7,5422.8,654.7,5424.9,657.7,5425.5z"/>
</g>
<g>
	<path d="M3772.2,8994.2c-4,0-5.7,0.6-7.7,1.4c-1.2,0.5-2.4,0.9-5.5,1.2l-9.9,0.5c-13.1,0.7-24.1,1.3-34.4,1.3
		c-10.2,0-18.5-0.6-28.2-2.1c-2.2-0.4-4-0.7-5.1-0.7c-4.9,0-6.3,3.2-6.3,5.1c0,8.5,25.7,17.2,29.7,17.2c2.6,0,4.3-0.9,5.9-1.7
		c1.5-0.8,3.2-1.6,6.4-2.1c5.6-0.7,25.2-1.9,37.7-2.7l4-0.3c-12.5,38.8-52.3,87.3-85.4,113.3c-6.5,5.3-7.3,7.9-7.3,9.6l0.9,4.6h3.9
		c1.6,0,3.8-0.5,9.6-4.5c53.9-37.2,82.3-70.6,104.4-122.3c0.6-0.9,1.3-1.7,1.9-2.5c1.8-2.2,3.7-4.4,3.7-7.2
		C3790.5,8995.3,3779,8994.2,3772.2,8994.2z"/>
	<path d="M3872.4,9051.9c-9.1,0-12.3,1.5-15.8,3.6c-1.8,1.1-3.3,2-6.7,2.5h-7.9v-82.1c0-1.8,0.2-3.2,0.4-4.4
		c0.2-1.2,0.3-2.2,0.3-3.2c0-5.5-4.4-7.9-8.9-9.6c-6-1.9-15.7-4.6-28.5-6.6c-4.1,0.1-13.7,0.4-13.7,6.7c0,2.8,2.3,5.1,7.2,6.9
		c6.1,2.7,18.7,8.4,20,10.3v190.1c0,3.7,0,14.8,7.5,14.8c3.1,0,6-2,9.1-6.7c4.2-10.4,5.9-20.6,6.2-36.4l0.2-64.7h37
		c7.8,0,11.9-5,11.9-10C3890.7,9051.9,3876.9,9051.9,3872.4,9051.9z"/>
	<path d="M4109,9051.9c-9.1,0-12.3,1.5-15.8,3.6c-1.8,1.1-3.3,2-6.7,2.5h-7.9v-82.1c0-1.8,0.2-3.2,0.4-4.4c0.2-1.2,0.3-2.2,0.3-3.2
		c0-5.5-4.4-7.9-8.9-9.6c-6-1.9-15.7-4.6-28.5-6.6c-4.1,0.1-13.7,0.4-13.7,6.7c0,2.8,2.3,5.1,7.2,6.9c6.1,2.7,18.7,8.4,20,10.3
		v105.4c-17.4,5.4-30.5,8-39.7,9.5c5.7-17.3,18-56.5,18-58.2c0-5.3-4.5-7.5-5.9-8.2c-0.7-0.3-16.1-8-25.9-8c-8.2,0-9.1,4.1-9.1,5.8
		c0,4,4.8,6.2,5.9,6.6c6,3.6,9.4,7.5,9.7,10.1c-1.1,15.6-5.6,40.5-8.8,54.3c-17.1,3.1-35.5,5.9-54.2,5.9c-9.2,0-18.5-0.7-27.9-2
		c-1.4-0.3-2.7-0.3-3.8-0.3c-5,0-7.2,2.8-7.2,5.6c0,3.2,2.9,5.4,5.8,7.1c22.4,10.5,29.5,12.7,33.8,12.7c3.4,0,5.3-1.4,6.6-2.4
		c0.8-0.6,1.4-1.1,2.1-1.4c37.3-6,72.8-14.3,100.7-23.7v71.4c0,3.7,0,14.8,7.5,14.8c3.1,0,6-2,9.1-6.7c4.2-10.4,5.9-20.6,6.2-36.4
		l0.2-64.7h37c7.8,0,11.9-5,11.9-10C4127.3,9051.9,4113.5,9051.9,4109,9051.9z"/>
	<path d="M3944.4,9022.3l-4.9,1.2v3.9c0,2.8,1.8,6.1,3,8c11.1,21.1,12.2,34.1,12.8,41.9c0.2,2,0.3,3.7,0.5,4.7
		c1.1,9.3,5.5,12.7,9.3,12.7c7.3,0,12.2-10.6,12.2-26.4c0-13.1-9.1-24.1-24.3-40.8C3949.5,9023.9,3946.9,9022.3,3944.4,9022.3z"/>
	<path d="M3944.7,9017.6c2.4,0,4.2-0.8,5.9-1.5c1.5-0.6,3.1-1.4,5.5-1.8c23.9-1.8,50.6-2.8,77.3-3.1c12.3,0,16.7-5.5,16.7-10.3
		c0-10.3-14-10.3-18.6-10.3c-12.9,0-16.2,1.7-19.4,4.1c-1.4,1-2.6,1.9-8.2,2.3l-7.3,0.9c-8.2,0.5-20.7,1.2-33.8,1.2
		c-14,0-25.1-0.8-33.6-2.3c-2.3-0.6-3.9-0.8-5.4-0.8c-3.8,0-5.8,2.6-5.8,5.1C3917.8,9008.9,3940.8,9017.6,3944.7,9017.6z"/>
	<path d="M4326.9,9126.6c-5.3,0-7.8,1-10.7,2.1c-2.6,1-5.9,2.3-12.9,3.3l-18.9,0.9c-11,0.5-18.2,0.9-24.5,1l0.6-35.5
		c0-0.8,0.2-1.5,0.3-2.3c0.2-0.9,0.4-1.8,0.4-2.9c0-7-7.1-8.4-28-10.5c-2.6,0.1-10.6,0.5-10.6,6.3c0,2.7,2.5,5.1,5.9,6.1
		c6.9,3.5,9.2,5.2,9.4,6.7v32.3h-0.2c-10.4,0.2-19.7,0.4-28.3,0.4c-24.3,0-42.3-1.2-59.8-3.9c-1.4-0.3-2.7-0.3-3.8-0.3
		c-7.3,0-7.7,4.6-7.7,5.6c0,8.4,31.6,19,35.8,19c3.1,0,5.4-0.9,8-2c2.1-0.9,4.8-2,8.4-2.9c20-1.3,50.5-2.8,82.3-2.8
		c25.7,0,49.7,1,69.8,2.8h2.4c9.4,0,13.6-4.6,13.6-9.1C4358.4,9127,4330.1,9126.6,4326.9,9126.6z"/>
	<path d="M4166.8,8993.7c10.4,4.1,15.9,7.2,16.5,8.7l0.2,49.2c0.3,13.8,11.8,21.3,22.6,21.3c0,0,21.1,0.2,30.5,0.2
		c29.9,0,68.7-0.2,79.4-0.9c8.6,0,13.1-4.9,13.1-9.8c0-1.1-0.5-10.8-17.9-10.8c-12.4,0-16.7,2.2-20.5,4.1c-2.8,1.4-5,2.5-11.3,2.7
		c-13.7,0.5-29.9,0.7-44.1,0.7c-16.4,0-27.2,0-28.7-1.4c-0.3-0.5-0.3-2.4-0.3-3.7l0.1-53c0.8-0.2,1.8-0.4,1.3-0.5
		c7.2-0.2,16.8-0.3,27.7-0.4c21.9-0.3,49.3-0.7,74.1-1.5c10.9,0,14.8-5.3,14.8-9.8c0-5.2-5.3-10.8-15-10.8h-2.1
		c-14.1,0-17.8,1.5-21.8,3.8c-2.4,1.4-5.2,3-16.7,3.8l-63.8,1c-5.8-2.3-17.5-5.2-33.3-6.2c-2.9,0.1-11.8,0.5-11.8,6.7
		C4159.8,8991,4163.8,8993.2,4166.8,8993.7z"/>
</g>
<g>
	<path d="M3714.7,9860.2c-9.1,0-12.3,1.5-15.8,3.6c-1.8,1.1-3.3,2-6.7,2.5h-7.9v-82.1c0-1.8,0.2-3.2,0.4-4.4
		c0.2-1.2,0.3-2.2,0.3-3.2c0-5.5-4.4-7.9-8.9-9.6c-6-1.9-15.7-4.6-28.5-6.6c-4.1,0.1-13.7,0.4-13.7,6.7c0,2.8,2.3,5.1,7.2,6.9
		c6.1,2.7,18.7,8.4,20,10.3v190.1c0,3.7,0,14.8,7.5,14.8c3.1,0,6-2,9.1-6.7c4.2-10.4,5.9-20.6,6.2-36.4l0.2-64.7h37
		c7.8,0,11.9-5,11.9-10C3733,9860.2,3719.2,9860.2,3714.7,9860.2z"/>
	<path d="M3611.1,9812.6c-5.6,0-7.2,0.5-9.1,1.3c-0.8,0.3-1.6,0.7-4,1l-12.1,0.5c-17,0.8-31.2,1.4-39.4,1.5
		c-8.2-1.7-16.8-2.6-28.7-2.8c-2.7,0.4-10.8,1.8-10.8,7.4c0,1.9,1,5.3,7.2,6.3c12.6,4.8,12.8,6.4,13.3,9.5c1.2,22,3.6,51.2,5.2,71.2
		c1.4,11,6.3,12.2,8.4,12.2c5.2,0,8.8-5.6,10.9-16.7l14-0.5c15.2-0.5,35-1.2,48.8-1.8c7.6,0,9.6-5,9.6-7.7c0-3.1-2.2-6.6-8.2-8.3
		l8.3-55.9c0.4-0.8,1.2-1.8,1.9-2.7c1.6-2,3.4-4.3,3.4-7.1C3629.9,9813.2,3620.7,9812.6,3611.1,9812.6z M3599.6,9886.5l-0.2,0.1
		c-2.1,0.8-3.2,1.2-9.2,1.7c-13.1,0.5-25.5,0.8-35.2,1l-3.2,0.1l-1.9-57.4c0.4-0.1,0.8-0.3,0.7-0.5c11.5-0.4,35.4-1.3,50.6-1.8
		C3601.2,9843.8,3600.5,9867.5,3599.6,9886.5z"/>
	<path d="M3951.3,9860.2c-9.1,0-12.3,1.5-15.8,3.6c-1.8,1.1-3.3,2-6.7,2.5h-7.9v-82.1c0-1.8,0.2-3.2,0.4-4.4
		c0.2-1.2,0.3-2.2,0.3-3.2c0-5.5-4.4-7.9-8.9-9.6c-6-1.9-15.7-4.6-28.5-6.6c-4.1,0.1-13.7,0.4-13.7,6.7c0,2.8,2.3,5.1,7.2,6.9
		c6.1,2.7,18.7,8.4,20,10.3v103.4c-46,19.6-103.3,24.2-103.7,24.2l-1.8-1.2l0.3-22.3l0.4-20.4c0.5-0.1,0.9-0.3,1.1-0.5l9.3-0.4
		c12.6-0.5,32.1-1.4,47.7-2.4c7.1-0.4,9.6-4.2,9.6-7.2c0-2.4-1.5-6.5-10.5-9.1c0.8-3.2,1.8-7.1,2.9-11.3c2.5-9.5,5.3-20.2,6-25.1
		c0.4-0.7,1.3-1.6,2.2-2.4c2-2,4.1-4.1,4.1-7c0-6.4-9.3-7.3-13.6-7.7c-11.3,0-13.6,0.7-16.4,1.8c-1.1,0.4-2.1,0.9-4.7,1.3l-2.9,0.2
		c-12.5,0.7-23.5,1.3-34,1.3c-9.4,0-17.7-0.5-25-1.5c-2.2-0.6-3.8-0.6-4.8-0.6c-4.9,0-6.3,3.2-6.3,5.1c0,7.9,24.1,16,27.1,16
		c2.6,0,4.3-0.8,6-1.7c1.4-0.7,2.9-1.4,5.2-1.9c13-1.7,22.7-2.3,34.8-3.1l5.1-0.3c-1,12.2-2.3,29-3.8,38.4c-2.1,0.9-3.7,1.5-8.8,1.9
		l-8.9,0.5c-8.3,0.5-15,0.9-21.7,1.1c-6.1-1.9-19.2-3.9-31.1-4.1c-7.7,1.3-11.5,3.8-11.5,7.6c0,3.1,2.3,5.1,6.6,5.9
		c4.8,1.5,12.8,3.9,13.1,6.9l0.5,43.8c0.3,12.1,7,21.3,15.5,21.3c16.2,0,75.5-17,112-33.3v73.1c0,3.7,0,14.8,7.5,14.8
		c3.1,0,6-2,9.1-6.7c4.2-10.4,5.9-20.6,6.2-36.4l0.2-64.7h37c7.8,0,11.9-5,11.9-10C3969.6,9860.2,3955.8,9860.2,3951.3,9860.2z"/>
	<path d="M4169.2,9934.9c-5.3,0-7.8,1-10.7,2.1c-2.6,1-5.9,2.3-12.9,3.3l-18.9,0.9c-11,0.5-18.2,0.9-24.5,1l0.6-35.5
		c0-0.8,0.2-1.5,0.3-2.3c0.2-0.9,0.4-1.8,0.4-2.9c0-7-7.1-8.4-28-10.5c-2.6,0.1-10.6,0.5-10.6,6.3c0,2.7,2.5,5.1,5.9,6.1
		c6.9,3.5,9.2,5.2,9.4,6.7v32.3h-0.2c-10.4,0.2-19.7,0.4-28.3,0.4c-24.3,0-42.3-1.2-59.8-3.9c-1.4-0.3-2.7-0.3-3.8-0.3
		c-7.3,0-7.7,4.6-7.7,5.6c0,8.4,31.6,19,35.8,19c3.1,0,5.4-0.9,8-2c2.1-0.9,4.8-2,8.4-2.9c20-1.3,50.5-2.8,82.3-2.8
		c25.7,0,49.7,1,69.8,2.8h2.4c9.4,0,13.6-4.6,13.6-9.1C4200.7,9935.3,4172.4,9934.9,4169.2,9934.9z"/>
	<path d="M4009.1,9802c10.4,4.1,15.9,7.2,16.5,8.7l0.2,49.2c0.3,13.8,11.8,21.3,22.6,21.3c0,0,21.1,0.2,30.5,0.2
		c29.9,0,68.7-0.2,79.4-0.9c8.6,0,13.1-4.9,13.1-9.8c0-1.1-0.5-10.8-17.9-10.8c-12.4,0-16.7,2.2-20.5,4.1c-2.8,1.4-5,2.5-11.3,2.7
		c-13.7,0.5-29.9,0.7-44.1,0.7c-16.4,0-27.2,0-28.7-1.4c-0.3-0.5-0.3-2.4-0.3-3.7l0.1-53c0.8-0.2,1.8-0.4,1.3-0.5
		c7.2-0.2,16.8-0.3,27.7-0.4c21.9-0.3,49.3-0.7,74.1-1.5c10.9,0,14.8-5.3,14.8-9.8c0-5.2-5.3-10.8-15-10.8h-2.1
		c-14.1,0-17.8,1.5-21.8,3.8c-2.4,1.4-5.2,3-16.7,3.8l-63.8,1c-5.8-2.3-17.5-5.2-33.3-6.2c-2.9,0.1-11.8,0.5-11.8,6.7
		C4002.1,9799.3,4006.1,9801.5,4009.1,9802z"/>
</g>
<g>
	<path d="M15031,1069.1c33.1,0,51-22.4,51-43.4c0-16.8-10.4-36.5-39.3-43.3c0.8-1.9,1.2-3,1.2-4.2c0-7.3-13.3-11-19-11
		c-6.6,0-6.7,4.8-6.7,5.3c0,2.8,2.1,4.9,5.3,8.3l-2.5,0.7c-32,5.8-43.4,26.8-43.4,43.1C14977.5,1046.7,14995.9,1069.1,15031,1069.1z
		 M15031,998.7c20.2,0,29.4,14,29.4,27.1c0,12.9-9.2,26.8-29.4,26.8c-21.8,0-31.8-13.9-31.8-26.8
		C14999.2,1012.7,15009.2,998.7,15031,998.7z"/>
	<path d="M15110.7,1073.1c-6.4,0-9,1.1-11.8,2.6c-1.8,1-3.7,1.9-8.8,2.6c-27.4,1.7-67.8,3.8-104.3,3.8c-20.9,0-39.6-0.8-53.5-2.3
		c-2.3-0.5-4.5-0.8-6.1-0.8c-5.1,0-6.5,3.2-6.5,5.1c0,8.4,32.4,19,36.8,19c3.6,0,5.7-1.3,7.6-2.5c1.4-0.9,2.7-1.8,4.6-2.2
		c11.7-1.1,35.8-2.6,52-3v83.6c0.1,5.5,0.4,17.1,7.7,17.1c4.9,0,7.8-5.9,9.9-11.2c4.8-14.9,4.9-35.7,4.9-90.1
		c16.2-0.4,29.4-0.6,41-0.6c16,0,29.2,0.3,44.4,0.7c6.4-0.7,11.1-4.9,11.1-10C15139.7,1073.1,15119.4,1073.1,15110.7,1073.1z"/>
	<path d="M15347,1142.4c-5.3,0-7.8,1-10.7,2.1c-2.6,1-5.9,2.3-12.9,3.3l-18.9,0.9c-11,0.5-18.2,0.9-24.5,1l0.6-35.5
		c0-0.8,0.2-1.5,0.3-2.3c0.2-0.9,0.4-1.8,0.4-2.9c0-7-7.1-8.4-28-10.5c-2.6,0.1-10.6,0.5-10.6,6.3c0,2.7,2.5,5.1,5.9,6.1
		c6.9,3.5,9.2,5.2,9.4,6.7v32.3h-0.2c-10.4,0.2-19.7,0.4-28.3,0.4c-24.3,0-42.3-1.2-59.8-3.9c-1.4-0.3-2.7-0.3-3.8-0.3
		c-7.3,0-7.7,4.6-7.7,5.6c0,8.4,31.6,19,35.8,19c3.1,0,5.4-0.9,8-2c2.1-0.9,4.8-2,8.4-2.9c20-1.3,50.5-2.8,82.3-2.8
		c25.7,0,49.7,1,69.8,2.8h2.4c9.4,0,13.6-4.6,13.6-9.1C15378.6,1142.8,15350.3,1142.4,15347,1142.4z"/>
	<path d="M15186.9,1009.5c10.4,4.1,15.9,7.2,16.5,8.7l0.2,49.2c0.3,13.8,11.8,21.3,22.6,21.3c0,0,21.1,0.2,30.5,0.2
		c29.9,0,68.7-0.2,79.4-0.9c8.6,0,13.1-4.9,13.1-9.8c0-1.1-0.5-10.8-17.9-10.8c-12.4,0-16.7,2.2-20.5,4.1c-2.8,1.4-5,2.5-11.3,2.7
		c-13.7,0.5-29.9,0.7-44.1,0.7c-16.4,0-27.2,0-28.7-1.4c-0.3-0.5-0.3-2.4-0.3-3.7l0.1-53c0.8-0.2,1.8-0.4,1.3-0.5
		c7.2-0.2,16.8-0.3,27.7-0.4c21.9-0.3,49.3-0.7,74.1-1.5c10.9,0,14.8-5.3,14.8-9.8c0-5.2-5.3-10.8-15-10.8h-2.1
		c-14.1,0-17.8,1.5-21.8,3.8c-2.4,1.4-5.2,3-16.7,3.8l-63.8,1c-5.8-2.3-17.5-5.2-33.3-6.2c-2.9,0.1-11.8,0.5-11.8,6.7
		C15180,1006.9,15183.9,1009,15186.9,1009.5z"/>
</g>
<g>
	<path d="M2796.1,4618.6c-14.7,0-19.8,2.4-24.8,5.5c-2.9,1.8-5.3,3.2-13.6,3.5l-66.4,0.6c-9.4,0-9.4-2.4-9.4-5.4v-35
		c0-1.6,0.3-3.1,0.5-4.3c0.3-1.4,0.4-2.7,0.4-3.7c0-7.9-7.1-9.9-11.1-10.9c-7-1.1-20-2.2-34-2.2c-0.1,0-0.3,0-0.4,0
		c-3.6,0.3-14.6,1.3-14.6,8.8c0,4.4,4.3,7.8,11.2,9.2c9,3,17.8,6.2,18.1,8.8v27.2c0,11.8,6.7,25.8,38.5,25.8h116.9
		c11.6,0,17.8-6.8,17.8-13.2C2825.3,4618.6,2804.8,4618.6,2796.1,4618.6z"/>
	<path d="M2729.1,4509.6c0-18.5-12.8-41.7-48.4-48.7c0.1-0.5,0.2-1.1,0.2-1.8c0-1.9-0.5-3.8-1.8-6c16.1-0.9,36.5-1.6,57.6-1.8
		c11.9,0,18.1-6.3,18.1-12.5c0-6.5-6.5-13.4-21.3-13.8c-15.3,0.2-19.7,2.1-24.7,5.1c-2.4,1.4-4.7,2.8-10.2,3.9
		c-28.5,2-46.7,3.1-67.1,3.1c-16.5,0-29.7-0.9-43.7-3.1c-2.4-0.3-4.5-0.6-6.1-0.6c-8.5,0-9.1,5.1-9.1,6.6c0,8.7,29.4,21.5,34.5,21.5
		c3,0,5.2-1,7-1.9c1.5-0.7,3-1.4,5.1-1.8c14.4-1.9,25.8-2.9,35.7-3c1.3,1.6,2.1,3,2.1,4.1c0,0.2-0.2,0.7-0.7,1.3
		c-39.6,5.9-53.8,30.2-53.8,49.4c0,24.4,22.4,50.3,63.9,50.3C2707.6,4559.8,2729.1,4534.6,2729.1,4509.6z M2631.4,4508.3
		c0-13.9,10.9-28.9,34.8-28.9c23.9,0,34.8,15,34.8,28.9s-10.9,28.9-34.8,28.9C2642.3,4537.2,2631.4,4522.3,2631.4,4508.3z"/>
	<path d="M2647.9,4418.5L2647.9,4418.5l36.3-0.9c16.2-0.4,22-6.9,22-12.8c0-5.6-5.5-11.6-18.1-12.5c-38.3,0-42.3,0-54.9-1.8
		c-3.5-0.7-6.4-1-8.1-1c-7.3,0-7.9,4.9-7.9,6.3C2617.2,4403.7,2640.5,4418.5,2647.9,4418.5z"/>
	<path d="M2833.5,4477.9c-14.8,0-19.4,2.2-24.1,5.3c-2.1,1.4-3.8,2.5-8.2,3.4c-2.6,0.4-5.2,0.4-7.8,0.4c-0.1,0-0.2,0-0.3,0l0.3-91.8
		c0-1.1,0.3-2.2,0.6-3.3c0.3-1.3,0.7-2.8,0.7-4.4c0-16.4-48.2-20.6-48.9-20.6h0c-4.8,0.2-16,0.7-16,8.5c0,4,3.6,7.2,10.2,9.3
		c19.5,8.4,23.1,12.4,23.5,12.4c0,0,0,0,0.1-0.1v178.6c0.2,5.2,0.6,18.9,10.1,18.9c4.9,0,9.3-4.4,13.8-13.9
		c3.3-9.4,5.1-23.8,5.5-75.3l49.3-1.1c7.9,0,14.1-5.6,14.1-12.8C2856.2,4477.9,2839.7,4477.9,2833.5,4477.9z"/>
	<path d="M3099.3,4545h-4.6c-7,0-9.4,1.1-11.7,2.5c-0.7,0.4-0.9,0.6-3.3,0.6c-15,1.5-66.7,2.7-81.1,3.2c-7.1-1.4-22.3-3.8-36.5-4.4
		c-4.7,0.8-14.5,2.4-14.5,9.4c0,5.6,6.3,7.5,10.2,8.6c13.7,4,14,5.8,14.3,7.7c1.6,14.7,2.8,37,3.7,53.6c0.5,9.1,0.9,16.6,1.2,20.1
		c1,13.9,6.4,16.8,10.7,16.8c6.1,0,11.2-7,14.1-18.9c23.5-0.2,79.5-1.6,98.8-2.2c8.3,0,14.4-4,14.4-9.4c0-3.1-1.7-8.3-12.3-11.3
		c2.9-13.2,8-37,11.2-54.8c0.4-1.6,1.5-3.2,2.6-4.8c1.5-2.2,3.1-4.5,3.1-7.3C3119.6,4546,3107.6,4545.4,3099.3,4545z M3081.5,4621.8
		c-5.3,1.4-7.7,2-14.4,2.9l-64.3,0.9l-2-55.3l1.2-0.9c8.5-0.3,20.2-0.7,32.3-1c18.2-0.5,37.4-1.1,49.3-1.7
		C3083.4,4582.3,3082.3,4608.3,3081.5,4621.8z"/>
	<path d="M3086.2,4521c0,16,5.5,19.3,10.1,19.3c3.8,0,9.2-2.4,13.8-14.3c3.9-11.5,5.2-30.4,5.2-44.3v-88.4c0-1.8,0.3-3.3,0.7-4.8
		c0.3-1.3,0.6-2.7,0.6-4.2c0-15.8-49-20.2-50.1-20.2h0c-5.5,0.5-15.8,1.3-15.8,8.8c0,5.4,6.1,8.2,11.4,10
		c19.2,7.2,23.5,13.2,23.6,14.4l0.3,80.1c-64.3,34.3-139.6,38.7-140.2,38.8l-2.3-1.6l0.3-18.3c0.1-6.8,0.2-12.6-0.2-19.5
		c1.3-0.3,3-0.7,3.5-1.2c13.6-0.9,46.9-2.5,70.2-3.4c9.2-0.6,12.5-5.5,12.5-9.4c0-5.3-4.6-9.5-12.7-11.7c1.9-7.1,4-13.8,6.2-21
		l2.9-10.8l2.1-2.4c2.7-2.9,5.5-6,5.5-9.7c0-7.2-8.5-10.7-26.2-10.7c-6.5,0-8.8,0.7-11.5,2.3c-0.8,0.5-1.6,1-4.9,1.4
		c-16.9,0.9-31.4,1.5-44.9,1.5c-14.9,0-27.4-0.7-39.1-2.1c-2.2-0.4-4.3-0.4-5.8-0.4c-7.7,0-8.8,4-8.8,6.3c0,10,33.2,20.9,37.3,20.9
		c3.4,0,5.7-1.1,7.9-2.2c1.7-0.8,3.7-1.8,6.4-2.5c16.1-2.2,28.8-2.9,45-3.7l6.8-0.4l-0.2,5.3c-0.3,11.9-0.5,20.3-1.5,29.6
		c-4.4,1.2-6.9,1.7-13.2,2.9c-21,1.2-24.3,1.2-38.8,2.1c-5.8-3-19-5.2-40.1-6.4c-4.4,0.5-16.3,1.9-16.3,9.7c0,5.7,6.6,7.7,10.4,8.9
		c10,2.7,17.1,5,17.4,9.8l0.6,38.2c0.7,13.1,10.1,27.7,21.5,27.7h0.1h0.1c24.2-0.6,103.7-24.6,149.8-49.3L3086.2,4521z"/>
	<path d="M3361.1,4528.9c-4.3,0.5-14.4,1.8-14.4,8.8c0,3.8,3,6.8,9.2,8.7c6.6,2.8,12.8,5.5,12.8,8.6v14.8l-87.4,1.4l0.3-14
		c0.3-1.3,0.6-2.7,0.6-4.3c0-10.6-10.4-14.4-45.7-16.5c-3.2,0.7-11.8,2.5-11.8,8.7c0,5.1,5.7,7,7.5,7.6c18.8,6.2,18.8,7.1,18.8,15.2
		c0.9,17.9,1.1,40.5,1.3,56.5l0.2,16.6c0,16.1,7,17.8,10.1,17.8c6.2,0,11.8-7.1,15.7-19.6l91.3-2.3c0.4,7.9,2.2,19.4,10.6,19.4
		c7.5,0,12-9.9,14.6-18.5c3.7-15.4,3.9-43.4,4.1-73.1l0.1-12.5c0-0.8,0.2-1.7,0.5-2.7c0.3-1.3,0.7-2.7,0.7-4.4
		C3400,4535.8,3388.9,4532.7,3361.1,4528.9z M3368.7,4618.1l-88,2.5l0.5-30.6l87.6-2.2V4618.1z"/>
	<path d="M3431.7,4491.8c-9.8,0-14,1.8-17.7,3.4c-3,1.3-5.7,2.4-12.3,2.8c-35.1,2-101.5,5.3-151.6,5.3c-34.8,0-48.4-1.6-53.8-2.9
		c-3-0.7-5.2-1.1-7.1-1.1c-7.2,0-9.1,4.4-9.1,7c0,10.3,38.9,23.4,44.1,23.4c3.9,0,6.3-1.4,8.2-2.6c1.9-1.1,3.5-2.1,7.5-2.4
		c6.3-0.3,79.7-4.5,90-4.9c15.4-0.6,39.5-1.2,63.5-1.2c21.4,0,41.7,0.7,58.5,1.9c8.4,0,15-5.6,15-12.8
		C3466.8,4491.8,3443.1,4491.8,3431.7,4491.8z"/>
	<path d="M3324.6,4487.2c43.9,0,67.6-27,67.6-52.4c0-20.2-14.4-45.6-54.6-53.1c0.7-1.5,1.4-3.3,1.4-5.4c0-9.9-18-14.1-23.7-14.1
		c-6.7,0-8.5,4.4-8.5,7c0,3.6,3,7,5.3,10.5l-2.5,1.2c-40,6.2-54.1,31.5-54.1,51.1C3255.5,4458.7,3279.7,4487.2,3324.6,4487.2z
		 M3323.7,4402.1c27.4,0,40.1,16.3,40.3,31.4c0,15-12.4,31.1-39.7,31.1c-27.5,0-40-16.1-40-31.1
		C3284.3,4418.4,3296.6,4402.1,3323.7,4402.1z"/>
</g>
<g>
	<path d="M4533.3,3544.5c1-1.6,1.8-3.4,1.8-5.6c0-8.4-14-14.7-23.1-14.7c-8.6,0-8.8,6.2-8.8,7c0,3.4,2.3,6,6,9c0,0-1.1,2-5.5,2
		c-30.6,5.1-50.4,26.1-50.4,53.6c0,28,21.9,57.7,62.6,57.7c40.9,0,62.9-28.9,62.9-56.1C4579.1,3577.3,4566.9,3553.6,4533.3,3544.5z
		 M4515.8,3630.9c-23,0-33.5-17.1-33.5-32.9c0-16.5,10.4-33.2,33.5-33.2c25.2,0,36.6,17.2,36.6,33.2
		C4552.5,3613.9,4541,3630.9,4515.8,3630.9z"/>
	<path d="M4645.7,3467.9c-4.8,0-15.9,0-15.9,7.9c0,3.6,2.9,6.6,9.2,9.8c20.9,10.9,22,16.2,22,16.2v109.4l-29.1,0.7v-100.2
		c0-0.8,0.2-1.7,0.4-2.6c0.3-1.2,0.5-2.5,0.5-3.9c0-9.6-9.6-14.1-44.2-19.9c-4.3,0.4-14.2,1.3-14.2,8.5c0,4.5,4.7,7.3,9.7,9.5
		c7.7,3.8,19.4,9.4,19.7,12.7v207.5c0,19.8,6.9,22.7,11,22.7c8,0,14.1-11,15.9-29.1l1.2-86l29.1-0.7v115.4
		c0,18.2,6.7,20.9,10.7,20.9c8.2,0,14.9-13.5,16.9-34.8l1.2-233.5c0-1.3,0.3-2.5,0.5-3.6c0.3-1.5,0.5-2.8,0.5-4.1
		C4690.7,3481.4,4681.7,3476.8,4645.7,3467.9z"/>
	<path d="M4935.3,3487.1c21.7,8.9,23.3,13.2,23.4,13.5l0.3,108.7c-13.9,1.6-26.9,2.5-38.8,2.5c-6.4,0-12.2-0.3-19.6-0.8
		c-2.4-0.2-4.3-0.4-6-0.4c-8.6,0-10.4,3.6-10.4,6.7c0,8.5,28.2,18.1,32.9,18.1c3.4,0,5.6-1.3,7.1-2.3c1-0.7,1.9-1.2,2.9-1.5
		c12.3-1.8,22.8-2.9,32.2-3.6c0.2,9.9,1.3,16.7,8.8,16.7c6,0,10.1-6.3,12.6-11.1c6.3-12.2,7.4-21.8,7.7-46.3v-90.9
		c0-2,0.3-3.6,0.5-4.8c0.2-1.4,0.4-2.5,0.4-3.5c0-6.7-5.8-9-11.4-11.1c-12.3-3.6-25.1-7.4-38.2-7.7c-3.7,0.2-15.1,0.7-15.1,8.5
		C4924.7,3484,4932.5,3486.3,4935.3,3487.1z"/>
	<path d="M4862.7,3583.6c40.7,0,59.2-23.5,59.2-45.3c0-16.9-11.2-38.6-42.3-47.1c0.5-1.1,0.8-2.3,0.8-3.7c0-8.1-12.2-13.5-20.3-13.5
		c-5.4,0-7.9,3.5-7.9,6.7s2,5.6,3.7,7.4c-0.1,0.3-1.2,1.1-3.5,1.4c-38.5,6.5-52.2,29.6-52.2,47.4
		C4800.4,3560.2,4821.8,3583.6,4862.7,3583.6z M4862.7,3510.9c22.2,0,32.3,13.2,32.3,25.5c0,12.7-10,25.5-32.3,25.5
		c-23.6,0-34.2-12.8-34.2-25.5C4828.5,3524.2,4839.2,3510.9,4862.7,3510.9z"/>
	<path d="M4987.3,3730.2c-10.7,0-14.7,1.7-19.1,4.2c-2.8,1.5-5.5,3-12.8,3.9c-18.2,0.3-37.1,0.6-52.8,0.6c-6.2,0-26.3-0.3-26.3-0.3
		l-2.6-2l0.2-24.3c33.4-0.3,75-1.2,98.6-2.2c14.5,0,15.6-7,15.6-9.1c0-4.6-3.8-8.2-11.4-10.7c2.4-7.8,6.2-17.1,9.2-24.2
		c0.4-1,1-1.9,1.5-2.9c1.3-2.2,2.8-4.8,2.8-7.7c0-9-13.3-10.1-23.4-10.1c-4.8,0-6.8,0.6-9.2,1.5c-1,0.3-2,0.7-3.5,1
		c-20.2,1.3-49.9,2.8-76.7,2.8c-3.8,0-7.3,0-10.5-0.1c0.6-0.9,1.2-2,1.8-3.1c4.3-8.9,5-18.5,5.4-38.6c16.6-2.5,74.3-12.1,74.3-22
		c0-1.8-0.8-6-8.5-6c-2.1,0-4.9,0-8.3,0.7c-47.4,8.3-97.1,13.5-129.6,13.5c-13.1,0-23.7-0.9-30.6-2.6c-3.8-0.9-6.7-1.4-9.3-1.4
		c-8.6,0-8.8,6-8.8,6.6c0,11.7,42.3,25.5,46.2,25.5c3.1,0,5.1-1.1,6.6-1.9c1.2-0.7,2.2-1.2,4.5-1.6l12.2-2.1
		c7.6-1.3,16.4-2.7,22.5-3.9l0.8,26.6c0.3,3.8,0.8,7.1,1.6,9.6c-3.6-0.2-6.8-0.5-9.6-0.8c-2.2-0.4-4-0.4-5.5-0.4
		c-8.8,0-9.8,4.7-9.8,6.7c0,9.5,30.5,18.7,35.4,18.7c3.5,0,5.9-1.1,8.2-2.1c2.1-0.9,4.2-1.9,7.5-2.5c0,0,70-3.1,81.9-3.5
		c-0.7,10.5-1.5,19.6-2,25.2c-3.9,0.9-6.8,1.3-11.9,1.8c-29.6,0.9-42.3,0.9-69,1.2c-4.5-1.5-19.2-3.7-31.9-3.7
		c-11.2,0-19,3.8-19,9.1c0,5.9,7.3,7.3,9.4,7.7c8.2,2.1,11.3,3.7,12.3,3.7c0.1,0,0.2,0,0.3-0.1v23.3c0,14.7,11,22.1,32.6,22.1h124
		c10.5,0,15.9-6.1,15.9-12.2C5016.6,3730.2,4996.8,3730.2,4987.3,3730.2z"/>
	<path d="M5197.5,3591.1c43.9,0,67.6-27,67.6-52.4c0-20.2-14.4-45.6-54.6-53.1c0.7-1.5,1.4-3.3,1.4-5.4c0-9.9-18-14.1-23.7-14.1
		c-6.7,0-8.5,4.4-8.5,7c0,3.6,3,7,5.3,10.5l-2.5,1.2c-40,6.2-54.1,31.5-54.1,51.1C5128.4,3562.6,5152.6,3591.1,5197.5,3591.1z
		 M5196.6,3506c27.4,0,40.1,16.3,40.3,31.4c0,15-12.4,31.1-39.7,31.1c-27.5,0-40-16.1-40-31.1
		C5157.1,3522.3,5169.5,3506,5196.6,3506z"/>
	<path d="M5304.5,3595.7c-9.8,0-14,1.8-17.7,3.4c-3,1.3-5.7,2.4-12.3,2.8c-35.1,2-101.5,5.3-151.6,5.3c-34.8,0-48.4-1.6-53.8-2.9
		c-3-0.7-5.2-1.1-7.1-1.1c-7.2,0-9.1,4.4-9.1,7c0,10.3,38.9,23.4,44.1,23.4c3.9,0,6.3-1.4,8.2-2.6c1.9-1.1,3.5-2.1,7.5-2.4
		c6.3-0.3,79.7-4.5,90-4.9c15.4-0.6,39.5-1.2,63.5-1.2c21.4,0,41.7,0.7,58.5,1.9c8.4,0,15-5.6,15-12.8
		C5339.6,3595.7,5315.9,3595.7,5304.5,3595.7z"/>
	<path d="M5234,3632.8c-4.3,0.5-14.4,1.8-14.4,8.8c0,3.8,3,6.8,9.2,8.7c6.6,2.8,12.8,5.5,12.8,8.6v14.8l-87.4,1.4l0.3-14
		c0.3-1.3,0.6-2.7,0.6-4.3c0-10.6-10.4-14.4-45.7-16.5c-3.2,0.7-11.8,2.5-11.8,8.7c0,5.1,5.7,7,7.5,7.6c18.8,6.2,18.8,7.1,18.8,15.2
		c0.9,17.9,1.1,40.5,1.3,56.5l0.2,16.6c0,16.1,7,17.8,10.1,17.8c6.2,0,11.8-7.1,15.7-19.6l91.3-2.3c0.4,7.9,2.2,19.4,10.6,19.4
		c7.5,0,12-9.9,14.6-18.5c3.7-15.4,3.9-43.4,4.1-73.1l0.1-12.5c0-0.8,0.2-1.7,0.5-2.7c0.3-1.3,0.7-2.7,0.7-4.4
		C5272.8,3639.6,5261.8,3636.6,5234,3632.8z M5241.6,3722l-88,2.5l0.5-30.6l87.6-2.2V3722z"/>
</g>
<g>
	<path d="M7408.3,2575.9l-3.8-1.1c-8.6-2.5-19.2-5.7-30-6.5c-4.9,0.2-15.1,0.6-15.1,8.2c0,4,3.3,7.3,10.3,10.2
		c6.9,3.4,21.3,10.4,21.3,14.9v63.2l-5.1,0.2c-11.4,0.5-23.2,1.1-35.6,1.1c-1.6,0-9.7-0.3-9.8-0.3c6.6-10.9,11.9-22,18.1-35.4
		c1.3-1.9,2.9-4.2,2.9-7.1c0-8.5-10.9-8.5-21.5-8.5c-7.5,0-9.6,0.5-12.7,1.8c-1,0.4-2.2,0.9-4,1.3c-9.6,1.1-26,1.8-42.7,1.8
		c-11.8,0-20.7-0.4-29-1.4c-1.9-0.3-3.4-0.4-4.7-0.4c-8.6,0-8.8,6-8.8,6.7c0,10,28.7,18.7,33.6,18.7c3.3,0,5.4-1.1,7.2-2
		c1.5-0.8,3.1-1.6,6-2.1c12.1-1.2,27.7-2.6,38.2-3.3c-20.1,58.7-82.8,111.8-95.3,120.6c-4.4,4-6.9,7-6.9,10.3l1.2,6h5.1
		c3.5,0,7.6-2.5,9.7-4c33.3-22.4,56.5-42.1,76.5-64.9c3.5,5.4,7.3,11.9,11.2,18.8c8,13.9,16.3,28.4,24.6,37.1
		c2.4,2.4,5.1,3.6,7.9,3.6c4.8,0,10.1-3.9,10.1-12.5c0-6.3-2.7-14.9-8.2-26.3c-3.2-6.6-7-9.2-11.1-11.9c-5-3.3-11.7-7.8-22.5-23.4
		c2.1-2.9,4-5.7,5.8-8.4c7.6,5,18.1,8.7,21.9,8.7c2.8,0,4.9-1,6.8-2c1.9-0.9,4.1-2,7.7-2.7l23.4-1V2793c0,14.4,1.2,27.7,10.4,27.7
		c10.7,0,16.9-20,17.5-56.4l0.6-167c0-1.1,0.2-2.2,0.4-3.2c0.3-1.5,0.5-3,0.5-4.6C7420.3,2583.4,7416.4,2578.9,7408.3,2575.9z"/>
	<path d="M7460.6,2555.8l-6.5-2.1c-7.2-2.3-17-5.5-29.5-7.7c-5.3,0.2-15.1,0.6-15.1,8.2c0,5.3,5.9,8.2,9.8,9.7
		c19.5,10.7,21.4,15.3,21.5,15.3c0,0,0,0,0,0v242.3c0.1,7.8,0.5,23.9,11,23.9h0.8l0.8-0.2c12.4-3.9,15.5-33.3,16.2-50.7v-218.6
		c0-1.3,0.3-2.5,0.6-3.7c0.3-1.3,0.7-2.7,0.7-4.3C7470.7,2561.4,7465.7,2558.2,7460.6,2555.8z"/>
	<path d="M7771.3,2682.4c-8.4,0-11.7,1.4-15.5,3.4c-2.4,1.3-4.9,2.6-11.4,3.4c-36,2.3-88.8,4.9-136.4,4.9c-27.9,0-51.7-1-70-3
		c-3-0.7-5.9-1.1-7.9-1.1c-6.7,0-8.5,4.2-8.5,6.7c0,11,42.4,24.9,48.1,24.9c4.7,0,7.5-1.8,9.9-3.3c1.8-1.2,3.5-2.3,6.1-2.9
		c15.4-1.5,46.9-3.4,68-3.9V2821c0.2,7.2,0.6,22.3,10.1,22.3c6.4,0,10.2-7.7,12.9-14.7c6.3-19.5,6.4-46.7,6.4-117.8
		c21.2-0.5,38.5-0.8,53.7-0.8c21,0,38.2,0.3,58,0.9c8.4-0.8,14.5-6.4,14.5-13.1C7809.2,2682.4,7782.7,2682.4,7771.3,2682.4z"/>
	<path d="M7544,2667.3c11,0,70.3-13.6,123.8-39.5c13,4,87.2,26.5,101.3,26.5c13.4,0,14.1-8.6,14.1-10.4c0-18.5-40.7-23.7-45.3-23.7
		c-2.6,0-4.9,0.3-7.4,0.6c-2.5,0.3-5.3,0.7-9,0.7c-10.2,0-15.2-1.1-31.7-6.1c14-9.4,33.2-24.4,47.6-36.5c0.9-0.7,2.2-1.5,3.5-2.3
		c4.6-2.9,9.3-5.9,9.3-10.9c0-8.6-14.9-10.4-27.4-10.4c-6,0-8.6,0.9-11.1,1.7c-2.2,0.8-4.5,1.5-13,2c-17.2,0.9-37.5,1.5-56.6,1.5
		c-29.9,0-55.3-1.4-67.7-3.6c-1.9-0.4-3.5-0.4-5-0.4c-8.6,0-8.8,6-8.8,6.7c0,10.1,37.1,21.8,41.6,21.8c3.2,0,5.4-1,7.5-2
		c1.8-0.8,3.9-1.8,7.1-2.4c14.6-1,53.4-2.7,79.3-3.8c-40.5,39-104,61.6-149.5,75.5c-5.5,1.7-11,4.1-11,8.9
		C7535.5,2663.1,7536.3,2667.3,7544,2667.3z"/>
	<path d="M7984.6,2689.8c-2.9-1.4-5.4-2.6-7.8-4.9c-8-6.9-16.6-16.1-25.7-25.7l-2.4-2.5c13.3-25.3,18.1-35.9,18.1-40.3
		c0-4.3-2.2-7.8-5.5-9.4c-9.5-6.9-32.6-17.4-43.2-17.4c-9.1,0-13.8,2.7-13.8,7.9c0,4.3,4,7,7.5,9.2c9.3,4.5,18.5,12.1,19.4,13.9
		c-0.3,6.9-26.2,68.1-86,117.4c-6.8,5.7-7.7,8.8-7.7,11l0.9,5.7h5.1c12.7,0,63.9-40.6,93.7-80.9c15.9,19.1,40.2,49.7,46.1,57.2
		c5.5,8.6,12.4,13.5,18.8,13.5c5.3,0,11-4,11-12.8c0-4-1.2-8.8-3.5-14.1C8000.8,2697.5,7991.8,2693.2,7984.6,2689.8z"/>
	<path d="M8069.1,2555l-3.3-1.1c-7.2-2.5-18.1-6.2-36.5-9c-3.7,0.3-14.9,1.3-14.9,9.1c0,4.1,3.4,7.3,9.9,9.6
		c18.8,8.3,24.3,14.7,24.5,16.3v245.9c0,4.6,0,18.4,9.4,18.4c3.9,0,7.5-2.7,10.8-8.5c6.3-13.3,7.9-22.8,7.9-78.6l0.3-182.2
		c0-1.5,0.3-2.8,0.5-4c0.3-1.5,0.5-3,0.5-4.4C8078.2,2561.1,8075.4,2557.5,8069.1,2555z"/>
</g>
<g>
	<path d="M10145.2,2094.4c-8,0-11.4,1.8-14.8,3.5c-2.4,1.2-4.6,2.3-9.2,3c-14.9,1.4-50.5,2-65.8,2.1l0.8-48.4c0-1.2,0.3-2.5,0.6-3.9
		c0.3-1.5,0.7-3.2,0.7-5.1c0-5.9-3.9-9.8-12.3-11.9l-3.6-0.4c-6.4-0.8-16.3-2.1-23.3-2.1c-1.8,0-17.5,0.3-17.5,9.1
		c0,6.5,8.7,8.5,11.5,9.2c11.4,3.8,13.6,6.4,13.8,6.4c0,0,0,0,0,0l0.3,47.2l-15.1,0.3c-13.3,0.3-26.7,0.5-39.4,0.5
		c-26.8,0-47.7-1-60-2.9c-3.1-0.8-5.7-0.8-7.4-0.8c-8.5,0-9.1,5.1-9.1,6.6c0,6.4,8.4,10.2,10.5,11.1c21.3,10.8,28.4,12.9,33.6,12.9
		c3.9,0,6.5-1.4,8.8-2.7c1.7-1,3.5-2,5.6-2.5c13.5-1.2,65.5-4,85.8-4c52.8,0,98.6,0.3,128.3,0.9c10.3,0,15-6.2,15-11.9
		C10183.1,2096.5,10159.3,2094.4,10145.2,2094.4z"/>
	<path d="M9909.8,2048.9c7.6,0,68.7-18.5,127.8-55.5c21.2,6.9,103,32,115.6,32c13.4,0,14.1-8.4,14.1-10.1
		c0-16.1-38.5-26.5-51.8-26.5c-2,0-3.9,0.2-5.8,0.3c-1.7,0.1-3.5,0.3-5.4,0.3c-10.6,0-32.7-4.8-47.4-9.1
		c16.8-13.5,39.9-34.3,56.3-52.4c1-1,2.3-2,3.5-3c4.1-3.3,7.9-6.4,7.9-10.8c0-8.9-13.4-9.2-23.4-9.4c-11.2,0-13.8,0.8-16.7,2.6
		c-0.7,0.5-1.6,1-6.1,1.4l-5.1,0.3c-14.7,1-53.9,3.7-81.2,3.7c-19.1,0-34-1.1-47.1-3.5c-2.2-0.3-4.1-0.5-5.5-0.5
		c-8.6,0-8.8,6-8.8,6.7c0,11,36.2,22.4,40.7,22.4c3.6,0,5.9-1.3,8-2.5c1.9-1,3.8-2.1,6.9-2.8c18.5-1.3,62.7-3.6,84.9-4.3
		c-35.3,41.6-88.7,77.2-158.8,105.8c-4.8,1.9-9.8,4.4-9.8,9.1l2.2,5.7H9909.8z"/>
	<path d="M10344.5,2041.9c4.6,6.1,9.1,12,12.9,16.6c3.8,5.4,8.6,8.3,13.4,8.3c5.3,0,10.7-3.9,10.7-12.5c0-3.5-0.9-7-2.7-10.6
		c-8.1-16.5-14.5-20.6-22.6-25.8c-5.5-3.5-12.1-7.7-21.6-17.5c12.2-12.9,20.6-22.7,32.3-39.6c6-3,9-6.5,9-10.5
		c0-9.4-14.9-9.4-22.1-9.4c-7.2,0-9.3,0.7-13.9,2.2c-12.2,1.4-32.2,2.1-54.8,2.1c-16.8,0-32.1-0.6-41-1.4c-2.8-0.3-5.1-0.5-7-0.5
		c-8.8,0-10.1,4.2-10.1,6.7c0,9.3,31.9,19.7,37.3,19.7c3.7,0,6-1.4,7.8-2.6c1.4-0.9,2.7-1.7,4.5-2.1c13.4-1.5,35.8-2.2,54.1-2.4
		c-26.3,37.7-67.2,72.2-113.3,95.6c-6.2,2.6-9.3,5.8-9.3,9.3l1.9,6h5.1c2.6,0,6.2-1.2,8.8-2.3c41-17,67.7-33.1,96.6-58.7
		C10327.3,2019.4,10336.3,2031.3,10344.5,2041.9z"/>
	<path d="M10448.1,2120.3c-15.2,0-19.9,2-25,4.9c-2.9,1.6-5.7,3.2-14.9,3.8l-64.3,0.6c-10-0.6-10-2.7-10-5.2
		c-0.3-11.4-0.3-28.1-0.3-41.6c0-1.8,0.3-3.4,0.5-4.7c0.2-1.4,0.4-2.7,0.4-3.7c0-8.1-7.3-9.8-10.9-10.6c-7.2-1.1-20-2.2-33.7-2.2
		c-0.5,0-0.9,0-1.4,0c-4.5,0.8-13.8,2.4-13.8,9.4c0,2,0.9,6.8,9.1,8.3c11.1,3.5,19.6,6.4,19.9,9.1l0.3,33.6
		c1.3,22.4,21.1,25.6,38.2,25.8h120.3c8.8,0,13.5-6.1,13.5-11.9C10476.1,2120.3,10455.8,2120.3,10448.1,2120.3z"/>
	<path d="M10300.3,1923.4h26.3c8.3,0,15.9,0,19.4-0.4c5.8-1,10.1-5.9,10.1-11.5c0-5.2-3.9-11.6-15.3-12.5c-29.3,0-47.1-2.7-60.8-4.8
		c-2.6-0.7-4.9-1.1-7-1.1c-7.5,0-7.9,5.3-7.9,6.3C10265.2,1908.2,10294.2,1922.2,10300.3,1923.4z"/>
	<path d="M10384.1,1990.8l-14.2-0.3c-9.6,0-10.4,5.3-10.4,7c0,9.7,23.2,16.9,27.7,16.9c3.1,0,5.1-0.9,7.2-1.8c2-0.9,4.3-1.9,8.3-2.5
		l17.8-1v69.5c0,14.3,1.3,28.9,10.7,28.9c2.7,0,5.3-1.4,7.4-4.1c9.3-11.8,9.7-33.4,10.2-58.3l0.1-6.7l0.3-137.8
		c0.1-1.4,0.4-2.7,0.6-3.8c0.4-1.9,0.7-3.6,0.7-5.3c0-7.9-7.3-11.4-13.5-13.4c-13.2-5.1-24.1-7.9-34.1-8.7
		c-5.9,0.4-15.9,1.2-15.9,8.5c0,5.1,5.7,7.8,11.6,10.5c6,2.8,21.8,10.4,21.8,16.7v84.8
		C10410.3,1990.3,10397.8,1990.8,10384.1,1990.8z"/>
	<path d="M10765.3,1996c-9.8,0-14,1.8-17.7,3.4c-3,1.3-5.7,2.4-12.3,2.8c-35.1,2-101.5,5.3-151.6,5.3c-34.8,0-48.4-1.6-53.8-2.9
		c-3-0.7-5.2-1.1-7.1-1.1c-7.2,0-9.1,4.4-9.1,7c0,10.3,38.9,23.4,44.1,23.4c3.9,0,6.3-1.4,8.2-2.6c1.9-1.1,3.5-2.1,7.5-2.4
		c6.3-0.3,79.7-4.5,90-4.9c15.4-0.6,39.5-1.2,63.5-1.2c21.4,0,41.7,0.7,58.5,1.9c8.4,0,15-5.6,15-12.8
		C10800.4,1996,10776.7,1996,10765.3,1996z"/>
	<path d="M10694.8,2033.2c-4.3,0.5-14.4,1.8-14.4,8.8c0,3.8,3,6.8,9.2,8.7c6.6,2.8,12.8,5.5,12.8,8.6v14.8l-87.4,1.4l0.3-14
		c0.3-1.3,0.6-2.7,0.6-4.3c0-10.6-10.4-14.4-45.7-16.5c-3.2,0.7-11.8,2.5-11.8,8.7c0,5.1,5.7,7,7.5,7.6c18.8,6.2,18.8,7.1,18.8,15.2
		c0.9,17.9,1.1,40.5,1.3,56.5l0.2,16.6c0,16.1,7,17.8,10.1,17.8c6.2,0,11.8-7.1,15.7-19.6l91.3-2.3c0.4,7.9,2.2,19.4,10.6,19.4
		c7.5,0,12-9.9,14.6-18.5c3.7-15.4,3.9-43.4,4.1-73.1l0.1-12.5c0-0.8,0.2-1.7,0.5-2.7c0.3-1.3,0.7-2.7,0.7-4.4
		C10733.6,2040,10722.6,2036.9,10694.8,2033.2z M10702.3,2122.3l-88,2.5l0.5-30.6l87.6-2.2V2122.3z"/>
	<path d="M10658.3,1991.4c43.9,0,67.6-27,67.6-52.4c0-20.2-14.4-45.6-54.6-53.1c0.7-1.5,1.4-3.3,1.4-5.4c0-9.9-18-14.1-23.7-14.1
		c-6.7,0-8.5,4.4-8.5,7c0,3.6,3,7,5.3,10.5l-2.5,1.2c-40,6.2-54.1,31.5-54.1,51.1C10589.2,1962.9,10613.4,1991.4,10658.3,1991.4z
		 M10657.4,1906.3c27.4,0,40.1,16.3,40.3,31.4c0,15-12.4,31.1-39.7,31.1c-27.5,0-40-16.1-40-31.1
		C10617.9,1922.6,10630.3,1906.3,10657.4,1906.3z"/>
</g>
<g>
	<path d="M12326,1622.4c-3.4-0.3-6.2-0.5-8.6-0.5c-9.3,0-13,1.5-16.9,3.6c-2.3,1.2-4.3,2.3-10,2.6c-5.1,0-10.1,0.3-15.2,0.5
		c9.2-22.1,17.6-52,24-74.4l2.3-8.4c0.3-0.4,1.5-1.5,2.3-2.2c2.6-2.3,5.9-5.2,5.9-9.3c0-10.5-22.1-11.3-28.9-11.3
		c-4.8,0-7.2,0.8-9.5,1.6c-2,0.7-4.1,1.4-8.8,1.8c-13.8,0.4-27.3,0.8-40.3,1.3c-20.9,0.8-40.4,1.5-57.9,1.5
		c-20.6,0-36.6-1.1-49.7-3.4c-2.2-0.3-4-0.6-5.6-0.6c-8.2,0-8.8,5.1-8.8,6.6c0,9.4,32.1,21.5,38.8,21.5c3.7,0,6.3-1.1,8.9-2.2
		c2.7-1.2,5.7-2.5,11.2-3c32.4-2,72.3-3.5,110.2-4.2l-0.6,9.9c-1.1,17.8-8.7,57.6-14.4,76.1l-5.3,0.2c-38.8,1.7-75.4,3.3-107.2,3.3
		c-24.9,0-45.7-1-61.6-3c-2.2-0.4-4-0.4-5.5-0.4c-8.2,0-9.1,4.7-9.1,6.7c0,10.7,40.1,22.4,45,22.4c3.6,0,6.1-1.1,8.7-2.2
		c2.7-1.2,6.1-2.6,12-3.7c14-0.9,35.9-2,64.8-3.5v132.9c0,15.8,6.8,17.5,9.7,17.5c4,0,6.9-3.3,8.9-6.1c6.8-10.6,10.1-22,10.1-58.4
		l0.6-87c19.7-0.8,39.5-1.3,58.3-1.3c16.3,0,31.6,0.3,47.2,1.4l2.6,0.2c11.4,0,16.6-5.7,16.6-11.3
		C12350.1,1631.3,12343.4,1624.2,12326,1622.4z"/>
	<path d="M12643,1655c-12.1,0-16.4,2.4-20.7,5.5c-2.1,1.5-3.7,2.7-8,3.1l-7.9,0.4v-127.9c0-0.8,0.6-9,0.6-9.6c0-5.4-3.2-7.8-7.2-10
		c-3.8-1.5-18-6.7-41.4-9.6c-4,0.2-16,0.6-16,8.5c0,6.2,8.1,9.6,11.3,10.6c17.9,7.2,22.8,12.3,23.1,12.9v140.3
		c-16.4,5.7-51.5,12.8-77.5,16.3l0.1-3.9c0.2-9.2,0.4-19.2,1.3-30.1l0.4-3.2c0-8.6-8.7-12.2-38.4-15.6c-1.6,0.2-4.7,0.4-7.6,1.4
		c10.5-6.2,20.3-12.4,27.7-17.6c44.4,21.8,69,32.9,73.1,32.9c6.8,0,11.9-4.5,11.9-10.4c0-6.8-6.4-13.6-18.9-20.2
		c-12.5-7.3-16.8-7.7-22.7-7.8c-2.5,0-5.1-0.1-9.4-1.1c-8.8-2.5-14.6-4.5-18.7-6.4c16.8-14.9,33.3-31.9,43.7-43.8
		c4-4,7.5-7.4,7.5-11.4c0-8.5-9.5-8.5-22.7-8.5c-8.8,0-11.2,0.8-14.1,2.1c-0.7,0.3-1.6,0.7-2.2,1c-14.3,1.5-37.4,2.5-58.9,2.5
		c-17,0-30.1-0.7-36.9-2.1c-3.3-0.7-5.7-1-7.9-1c-8.6,0-8.8,6-8.8,6.7c0,9.2,34,20.9,38.5,20.9c3,0,5-1.1,6.5-2
		c1.3-0.7,2.6-1.4,5-1.8l15.4-1.3c15.9-1.3,29.6-2.5,38.9-3.1c-24.4,36-88.5,76.6-112.4,87.8c-7.2,3.6-10.6,6-10.6,9.8l2.2,5.7h5.1
		c10.9,0,39-13.9,64.1-28.4c-1.1,1.1-1.8,2.6-1.8,4.4c0,4,3.3,7,9.7,8.9c9.1,3,11.9,6,12.2,6c0,0,0,0,0,0v34.2
		c-11.5,2.1-37.7,5.6-58.6,5.6c-1.5,0-5.7-0.3-9.8-0.6c-4.2-0.3-8.3-0.6-9.7-0.6c-7.2,0-9.7,3.9-9.7,7.3c0,4.4,3.7,8.3,11,11.5
		c24.5,11.2,32.6,13.4,37.7,13.4c4.8,0,7.4-2,9.5-3.7c1.6-1.2,3.1-2.4,5.8-3.2c52-10.9,89.9-19.3,129.9-33.8v82.6c0,19.8,6,24,11,24
		c10.6,0,15.8-20.2,17.2-39.4l1.5-80.1l48.2-0.6c7.6-0.5,13.5-6.2,13.5-13.1C12667.9,1662.8,12663.5,1655,12643,1655z"/>
	<path d="M12826.8,1629.1c43.9,0,67.6-27,67.6-52.4c0-20.2-14.4-45.6-54.6-53.1c0.7-1.5,1.4-3.3,1.4-5.4c0-9.9-18-14.1-23.7-14.1
		c-6.7,0-8.5,4.4-8.5,7c0,3.6,3,7,5.3,10.5l-2.5,1.2c-40,6.2-54.1,31.5-54.1,51.1C12757.7,1600.6,12781.9,1629.1,12826.8,1629.1z
		 M12825.9,1544c27.4,0,40.1,16.3,40.3,31.4c0,15-12.4,31.1-39.7,31.1c-27.5,0-40-16.1-40-31.1
		C12786.5,1560.3,12798.8,1544,12825.9,1544z"/>
	<path d="M12863.3,1670.8c-4.3,0.5-14.4,1.8-14.4,8.8c0,3.8,3,6.8,9.2,8.7c6.6,2.8,12.8,5.5,12.8,8.6v14.8l-87.4,1.4l0.3-14
		c0.3-1.3,0.6-2.7,0.6-4.3c0-10.6-10.4-14.4-45.7-16.5c-3.2,0.7-11.8,2.5-11.8,8.7c0,5.1,5.7,7,7.5,7.6c18.8,6.2,18.8,7.1,18.8,15.2
		c0.9,17.9,1.1,40.5,1.3,56.5l0.2,16.6c0,16.1,7,17.8,10.1,17.8c6.2,0,11.8-7.1,15.7-19.6l91.3-2.3c0.4,7.9,2.2,19.4,10.6,19.4
		c7.5,0,12-9.9,14.6-18.5c3.7-15.4,3.9-43.4,4.1-73.1l0.1-12.5c0-0.8,0.2-1.7,0.5-2.7c0.3-1.3,0.7-2.7,0.7-4.4
		C12902.1,1677.6,12891.1,1674.6,12863.3,1670.8z M12870.9,1760l-88,2.5l0.5-30.6l87.6-2.2V1760z"/>
	<path d="M12933.8,1633.7c-9.8,0-14,1.8-17.7,3.4c-3,1.3-5.7,2.4-12.3,2.8c-35.1,2-101.5,5.3-151.6,5.3c-34.8,0-48.4-1.6-53.8-2.9
		c-3-0.7-5.2-1.1-7.1-1.1c-7.2,0-9.1,4.4-9.1,7c0,10.3,38.9,23.4,44.1,23.4c3.9,0,6.3-1.4,8.2-2.6c1.9-1.1,3.5-2.1,7.5-2.4
		c6.3-0.3,79.7-4.5,90-4.9c15.4-0.6,39.5-1.2,63.5-1.2c21.4,0,41.7,0.7,58.5,1.9c8.4,0,15-5.6,15-12.8
		C12969,1633.7,12945.2,1633.7,12933.8,1633.7z"/>
</g>
<g>
	<path d="M13638.9,3290.9c-4.2,0.3-15.2,1.2-15.2,8.8c0,5.7,6.4,8.5,10.9,10c18.8,7.8,23.6,13.5,23.8,14.5v47
		c-14.8,1.3-35.2,2-48.4,2l-15.1-0.3c-9.3,0-10.7,4.4-10.7,7c0,8.9,24.7,16.6,30.5,16.6c3.5,0,6-1,8.3-1.9c2.1-0.8,4-1.6,7.1-1.8
		c3.5-0.1,7.3-0.5,11.7-0.9c4.7-0.4,10.1-1,16.7-1.3v69.8c0,7.8,0,26.1,10.7,26.1c5.5,0,8.9-5.6,9.9-7.4c5.6-8.9,8.4-23.3,8.8-45.4
		l0.3-114.4c0-1.8,0.3-3.1,0.5-4.2l0.4-3.5C13688.9,3296.4,13639.9,3290.9,13638.9,3290.9z"/>
	<path d="M13593.8,3455.8c6.8,0,11.9-5.3,11.9-12.2c0-3.6-1-7-3-10.3c-11.3-23.3-17.2-27.1-24.2-30c-1.8-0.8-3.2-1.3-5.2-3
		c-6.5-4.9-16.1-16.3-20-22.4c20.2-31.3,20.2-36.5,20.2-38.5c0-13.4-36.8-26.7-37.4-26.9c-3.3-1-6.3-1.4-8.8-1.4
		c-11.1,0-11.6,6.6-11.6,7.9c0,4.7,4.2,7.9,8.4,10.4c10.9,7.5,13.3,11.4,13.9,11.4c0,0,0,0,0.1,0c-0.3,0.9-1,2.9-1.8,5.3
		c-16,36.3-43.3,68.1-85.6,100c-2.1,1.5-7,5.6-7,10.3l1.2,6h5.1c8.4,0,59.9-31.9,90.7-68.7c11.7,16.4,27,37.1,39.9,54.4
		C13583.8,3452.8,13588.8,3455.8,13593.8,3455.8z"/>
	<path d="M13634.3,3477.5c0.9-1.5,1.7-3.3,1.7-5.5c0-9.3-19.2-15.6-25.5-15.6c-6.1,0-8.8,3.8-8.8,7.3c0,3.1,1.9,6.2,4.3,7.6
		c1.8,1.9,2.5,3.7,2.3,4.3c-39.2,5.4-56.7,31.6-56.7,55.2c0,27.3,22,54.9,64.2,54.9c42.9,0,66-28.4,66-55.2
		C13681.8,3511.1,13669.2,3486.4,13634.3,3477.5z M13616.7,3561.2c-26.2,0-38.2-16.7-38.2-32.3c0-15.9,11.9-32.9,38.2-32.9
		c26.4,0,38.2,16.5,38.2,32.9C13654.9,3544.5,13642.9,3561.2,13616.7,3561.2z"/>
	<path d="M14025.1,3406.3c-14.8,0-19.4,2.2-24.1,5.3c-2.1,1.4-3.8,2.5-8.2,3.4c-2.6,0.4-5.2,0.4-7.8,0.4c-0.1,0-0.2,0-0.3,0
		l0.3-91.8c0-1.1,0.3-2.2,0.6-3.3c0.3-1.3,0.7-2.8,0.7-4.4c0-16.4-48.2-20.6-48.9-20.6c0,0,0,0,0,0c-4.8,0.2-16,0.7-16,8.5
		c0,4,3.6,7.2,10.2,9.3c19.5,8.4,23.1,12.4,23.5,12.4c0,0,0,0,0.1-0.1V3504c0.2,5.2,0.6,18.9,10.1,18.9c4.9,0,9.3-4.4,13.8-13.9
		c3.3-9.4,5.1-23.8,5.5-75.3l49.3-1.1c7.9,0,14.1-5.6,14.1-12.8C14047.8,3406.3,14031.3,3406.3,14025.1,3406.3z"/>
	<path d="M13850.1,3397.6c14.9,16.1,39.1,41.9,54.2,57.3c3.1,2.7,6.4,4,9.8,4c6.8,0,11.6-5,11.6-12.2c0-3.7-1.1-7.7-3.4-11.9
		c-14.3-20.8-19.3-23.3-27-25.9c-3.1-1.1-6.3-2.2-11.2-5.5l-5-4.7c-5.7-5.3-10.5-9.6-16.5-16.3c3.5-5.7,6.5-10.4,9-14.2
		c5.8-8.9,8.7-13.4,8.7-18c0-12.7-36.9-26.5-43.1-28.4c-2-0.3-3.8-0.5-5.6-0.5c-8.3,0-11.3,3.9-11.3,7.6c0,4.8,4.6,8,8.5,10
		c10,7.6,14.7,12.6,14.7,15.1c-1.5,6.6-31.3,58.4-86.2,94.5c-5.9,3.4-8.8,6.7-8.8,10.3l1.9,6.3h5.1c2.9,0,6.6-1.1,10-3
		C13798.9,3445,13823,3426.7,13850.1,3397.6z"/>
	<path d="M13986.1,3541.7c-15.1,0-19.8,2.1-24.8,4.9c-2.9,1.7-5.7,3.3-14.8,4l-55.6,0.6c-10.1-0.6-10.2-2.7-10.3-5.5
		c-0.3-10.8-0.3-29-0.3-42.1l0.5-3.7c0.3-1.8,0.5-3.3,0.5-4.8c0-8.4-7.8-10.2-11.1-10.9c-5.1-0.8-17.6-2.2-33.2-2.2
		c-0.4,0-0.8,0-1.3,0c-4.6,0.8-14.1,2.5-14.1,9.4c0,6,7.2,8,9.5,8.6c7.3,2.1,19.4,5.7,19.5,8.4l0.3,35.3
		c1.8,22.1,21.5,25.2,38.5,25.4h111.6c7.8,0,13.5-5,13.5-11.9C14014.4,3541.7,13993.1,3541.7,13986.1,3541.7z"/>
	<path d="M14206.8,3415.6c43.9,0,67.6-27,67.6-52.4c0-20.2-14.4-45.6-54.6-53.1c0.7-1.5,1.4-3.3,1.4-5.4c0-9.9-18-14.1-23.7-14.1
		c-6.7,0-8.5,4.4-8.5,7c0,3.6,3,7,5.3,10.5l-2.5,1.2c-40,6.2-54.1,31.5-54.1,51.1C14137.7,3387.1,14161.9,3415.6,14206.8,3415.6z
		 M14205.9,3330.5c27.4,0,40.1,16.3,40.3,31.4c0,15-12.4,31.1-39.7,31.1c-27.5,0-40-16.1-40-31.1
		C14166.5,3346.8,14178.8,3330.5,14205.9,3330.5z"/>
	<path d="M14313.8,3420.2c-9.8,0-14,1.8-17.7,3.4c-3,1.3-5.7,2.4-12.3,2.8c-35.1,2-101.5,5.3-151.6,5.3c-34.8,0-48.4-1.6-53.8-2.9
		c-3-0.7-5.2-1.1-7.1-1.1c-7.2,0-9.1,4.4-9.1,7c0,10.3,38.9,23.4,44.1,23.4c3.9,0,6.3-1.4,8.2-2.6c1.9-1.1,3.5-2.1,7.5-2.4
		c6.3-0.3,79.7-4.5,90-4.9c15.4-0.6,39.5-1.2,63.5-1.2c21.4,0,41.7,0.7,58.5,1.9c8.4,0,15-5.6,15-12.8
		C14348.9,3420.2,14325.2,3420.2,14313.8,3420.2z"/>
	<path d="M14243.3,3457.3c-4.3,0.5-14.4,1.8-14.4,8.8c0,3.8,3,6.8,9.2,8.7c6.6,2.8,12.8,5.5,12.8,8.6v14.8l-87.4,1.4l0.3-14
		c0.3-1.3,0.6-2.7,0.6-4.3c0-10.6-10.4-14.4-45.7-16.5c-3.2,0.7-11.8,2.5-11.8,8.7c0,5.1,5.7,7,7.5,7.6c18.8,6.2,18.8,7.1,18.8,15.2
		c0.9,17.9,1.1,40.5,1.3,56.5l0.2,16.6c0,16.1,7,17.8,10.1,17.8c6.2,0,11.8-7.1,15.7-19.6l91.3-2.3c0.4,7.9,2.2,19.4,10.6,19.4
		c7.5,0,12-9.9,14.6-18.5c3.7-15.4,3.9-43.4,4.1-73.1l0.1-12.5c0-0.8,0.2-1.7,0.5-2.7c0.3-1.3,0.7-2.7,0.7-4.4
		C14282.1,3464.1,14271.1,3461.1,14243.3,3457.3z M14250.9,3546.5l-88,2.5l0.5-30.6l87.6-2.2V3546.5z"/>
</g>
<g>
	<path d="M11977.7,4439.5c-8.4,0-11.8,1.8-15.1,3.5c-2.6,1.4-5.3,2.8-12,3.6c-11.2,0.3-16.8,0.5-20.3,0.6c1.2-5.8,2.6-13.1,4-20.3
		c1.1-6,2.3-12,3.3-17.4c0.2-1.6,0.8-3,1.2-4.2c0.7-1.8,1.3-3.7,1.3-5.9c0-12.9-36.8-16.9-37.5-16.9c-4.5,0.2-13.8,0.7-13.8,7.6
		c0,5,5.3,7.5,9.1,8.8c7.6,4.3,9.5,5.7,9.5,9.5c0,12.8-1.2,31-1.8,39.5c-8.8,0.2-50.8,1.7-57.6,1.9l-0.3-37.4c0-1.7,0.2-3.2,0.3-4.5
		c0.2-1.4,0.3-2.7,0.3-3.8c0-10.8-10.6-13.1-37.5-15.9c-4,0.2-14.8,0.7-14.8,8.2c0,4.7,4.7,7.4,8.2,9c13.1,6.2,14.6,9.3,14.7,9.3
		c0,0,0,0,0,0l2.4,35.6c-4.4,0.1-17.1,0.1-17.4,0.1c-15.7,0-38.9-0.5-62.6-3.3c-1.8-0.2-3.2-0.4-4.2-0.4c-8.5,0-9.1,5.1-9.1,6.7
		c0,10,35.6,24.9,44.4,24.9c4.4,0,7.5-1.4,10.4-2.8c2.6-1.2,5.3-2.4,9.2-3.1c38.7-3.3,86.1-5.2,130.1-5.2c27.1,0,53.3,0.9,78.2,2.5
		c13.4,0,19.3-6.3,19.3-12.5C12019.6,4439.9,11981.9,4439.5,11977.7,4439.5z"/>
	<path d="M11798.6,4277.4c1.4,0,2.6-0.2,3.7-0.5c-1.5,1.2-2.6,3.1-2.6,5.9c0,2.4,0.7,4.8,2.3,8.1c15,31.5,19.7,45.8,22.6,56.5
		c1.4,5.8,3.9,10.2,7,12.8c-2.2,0-4.3,0-6.3,0c-19.4,0-34.8-1.1-45.6-3.3c-3.2-0.7-5.7-1-7.6-1c-7.6,0-8.2,4.9-8.2,6.4
		c0,10.4,30.7,22.7,35.7,22.7c2.8,0,4.9-0.9,6.8-1.8c1.8-0.8,3.8-1.7,6.9-2.3c39.2-3.5,77.8-5.2,114.9-5.2l30,0.3
		c12.5,0,19-6.5,19-12.8c0-2.4-1.2-14.1-25.5-14.1c-14.6,0-18.1,1.4-21.8,3.7c-1.3,0.8-2.3,1.4-5.9,2c-3.6,0.5-8,1-12.4,1.3
		c5-11.2,11.2-26.9,16.8-41.1l4.6-11.5c0.8-2.2,1.9-4,2.7-5.6c1.5-2.6,2.9-5.1,2.9-8c0-12.6-34.7-19.3-38.8-19.3
		c-4.4,0-14.7,0-14.7,7.6c0,5.1,5.3,8,7.1,9c10.4,6.3,10.1,8.1,9.4,13.1c-3.7,23-9.7,47.7-13.3,57.2c-15.6,1.2-30.1,2.1-43.2,2.5
		c3-2.7,6.2-8,7.6-18.2l-0.3-11c-1.1-17.1-13.3-29.1-36.7-50.5c-5.3-4.7-8.3-4.7-9.3-4.7c-0.3,0-0.7,0-1,0.1
		c0.2-0.1,0.5-0.3,0.7-0.4c1.7-0.9,3.5-1.9,6.5-2.5c40.5-2.6,99.7-5.3,140.4-5.3c8.1,0,24.9,0,24.9-14.1c0-7.5-7.9-15-25.5-15
		c-18.5,0-24,2.5-29.7,6c-2.9,1.8-5.3,3.3-13.7,3.9c-12.7,1.2-45.5,4-77.8,4c-23.2,0-41.2-1.2-54.9-3.6c-3.2-0.7-5.6-1-7.6-1
		c-6.5,0-8.2,4.2-8.2,6.6C11760.4,4264.9,11793.2,4277.4,11798.6,4277.4z"/>
	<path d="M12137.1,4328.8c10,10.9,22.1,23.7,32.3,34.5c7.4,7.8,13.8,14.6,18,19.2c5.4,5,10.5,7.6,15.2,7.6c6.8,0,11.6-5,11.6-12.2
		c0-5.1-2.4-11-7.1-17.6c-14.3-16.3-20-18.7-26.2-21.2c-3.4-1.4-6.5-2.7-12.3-7.2c-5.9-3.8-13.6-11.6-20-18.2
		c8.3-12,24.8-38.7,24.8-45c0-4.6-3.1-7.9-6.3-10.7c-0.3-0.2-31.4-17-44.2-17c-2.8,0-10.3,0-11.8,5.7c-1.5,6,5.7,10,8,11.2
		c8.1,4.8,17.6,13.5,18.6,14.7c-2.9,14.4-34.2,68.7-87.4,105.8c-6.3,4.6-8.9,8-8.9,11.6l1.5,6h5.1
		C12057.6,4395.9,12112.7,4357.9,12137.1,4328.8z"/>
	<path d="M12281.5,4463.6c-15.2,0-19.9,2-25,4.9c-2.9,1.6-5.7,3.2-14.9,3.8l-64.3,0.6c-10-0.6-10-2.7-10-5.2
		c-0.3-11.4-0.3-28.1-0.3-41.6c0-1.8,0.3-3.4,0.5-4.7c0.2-1.4,0.4-2.7,0.4-3.7c0-8.1-7.3-9.8-10.9-10.6c-7.2-1.1-20-2.2-33.7-2.2
		c-0.5,0-0.9,0-1.4,0c-4.5,0.8-13.8,2.4-13.8,9.4c0,2,0.9,6.8,9.1,8.3c11.1,3.5,19.6,6.4,19.9,9.1l0.3,33.6
		c1.3,22.4,21.1,25.6,38.2,25.8h120.3c8.8,0,13.5-6.1,13.5-11.9C12309.5,4463.6,12289.2,4463.6,12281.5,4463.6z"/>
	<path d="M12212.6,4330.6c3.6,0,5.9-1.3,7.7-2.4c1.6-1,3.3-2,6.2-2.5l26.4-1.8l0.3,90.7c0,11.7,1.1,27.4,11,27.4
		c11.3,0,17.4-19.1,18.1-56.8v-142.3c0-2,0.3-3.6,0.5-5c0.2-1.5,0.4-2.8,0.4-4c0-7.5-6.4-10.6-13.1-13.2l-3.9-1.3
		c-8.6-2.9-19.3-6.4-31.8-7c-5.4,0.4-16.5,1.2-16.5,8.8c0,4.8,4.9,8.6,13.9,10.9c19.3,8.1,21,13,21,14.2v58
		c-13.7,0.8-25.6,1.2-37.2,1.6l-20.6,0.9c-2.2-0.4-4-0.4-5.5-0.4c-9.1,0-9.8,5.3-9.8,7C12179.9,4324,12209.7,4330.6,12212.6,4330.6z
		"/>
	<path d="M12489.5,4373.3c10,0,22.4,0,22.4-8.8c0-0.7-0.1-1.3-0.3-1.9c7.2,3.1,14.7,5.2,16.8,5.2c3.5,0,5.7-1.3,7.3-2.3
		c1.2-0.7,2.3-1.4,3.6-1.7l4-0.3c6.4-0.4,13.1-0.8,19-1.3l-0.3,52.3c0.3,8.9,0.7,23.8,10.4,23.8c4.3,0,7.5-3.6,10.3-7.4
		c6.5-11,8.4-20,9.4-62.9l0.3-124.3c0-1.4,0.4-2.7,0.8-4.2c0.5-1.6,1-3.4,1-5.4c0-17.4-52.2-20.9-52.7-20.9c-0.2,0-15,0.7-15,8.8
		c0,5.1,5.4,7.1,12.1,9.7c18.3,7.8,23.4,14.2,23.5,16.3v33.6c-10.5,0.7-18.8,1.2-29.2,1.2c-4.8,0-14.3,0-21.2-0.5
		c0.6-0.8,1.3-1.6,1.8-2.3c2.2-2.6,4.4-5.2,4.4-8.5c0-8.8-12.6-8.8-18.7-8.8c-10.4,0-13.4,0.7-16.2,1.5c-1.1,0.3-1.8,0.6-4.5,0.7
		c-27.2,1.5-47.1,1.9-68.9,2.1c-8.2-2.8-22.2-4.1-38.6-5.1c-6.8,1.4-14,3.4-14,9.3c0,6,6.9,8,9.8,8.9c11.1,3.5,14.8,5.7,15.7,5.7
		c0.1,0,0.2-0.1,0.2-0.2l7.4,75.2c1.5,22.4,2.1,30.7,10,30.7c7.9,0,11.7-9.5,13.8-16.5l19.6-0.5
		C12452.8,4374,12476.8,4373.3,12489.5,4373.3z M12507.8,4299.2c6.7,3.5,15.7,7,19.8,7c3.5,0,5.6-1.5,7-2.5c1.1-0.8,1.9-1.3,3.8-1.6
		c4.4-0.5,14.1-1.3,23.9-1.6l-0.2,41.7c-11.5,1.1-24.7,1.7-39.4,1.7l-14.5-0.3c-4,0-6.6,0.7-8.3,1.8L12507.8,4299.2z
		 M12413.6,4285.2l65.8-1.7l-0.1,6.4c-0.5,22.1-1.1,49.1-2.2,63.5c-11.5,3.1-19.5,3.2-61.1,3.2L12413.6,4285.2z"/>
	<path d="M12591,4463.6c-15.2,0-19.9,2-25,4.9c-2.9,1.6-5.7,3.2-14.9,3.8l-64.3,0.6c-10-0.6-10-2.7-10-5.2
		c-0.3-11.4-0.3-28.1-0.3-41.6c0-1.8,0.3-3.4,0.5-4.7c0.2-1.4,0.4-2.7,0.4-3.7c0-8.1-7.3-9.8-10.9-10.6c-7.2-1.1-20-2.2-33.7-2.2
		c-0.5,0-0.9,0-1.4,0c-4.5,0.8-13.8,2.4-13.8,9.4c0,2,0.9,6.8,9.1,8.3c11.1,3.5,19.6,6.4,19.9,9.1l0.3,33.6
		c1.3,22.4,21.1,25.6,38.2,25.8h120.3c8.8,0,13.5-6.1,13.5-11.9C12619,4463.6,12598.6,4463.6,12591,4463.6z"/>
</g>
<g>
	<path d="M9930.6,5446.7c-4.7,0-7.4,0.8-10,1.5c-1.6,0.5-3.3,1-5.2,1.3l-82.7,1.7c-6.4-1.7-24.8-4.7-40.4-4.7c-0.4,0-0.7,0-1,0
		c-5.8,1.4-12.9,3.1-12.9,9c0,6,7.5,7.9,10,8.5c11.9,4.7,14.5,6.1,15.3,9.5l4.3,71.1c0,19.8,7.1,22.7,11.3,22.7
		c6.3,0,11.8-7.3,14.9-19.8h101.4c10.6,0,15.3-5.2,15.3-10.4c0-4.8-4-10.5-14.9-12.5c2.5-12.6,8.2-37.9,13.4-58.1
		c0.2-0.7,1-1.8,1.6-2.7c1.4-1.9,2.9-4.1,2.9-6.8C9954,5448.1,9939.4,5446.7,9930.6,5446.7z M9914,5525.4c-1.6,0.4-2.8,0.8-3.9,1.2
		c-2.8,0.9-4.3,1.4-10.5,1.8l-65.1,1.1l-0.8-46.1l-0.3-13l1.3-0.8l82.3-1.2L9914,5525.4z"/>
	<path d="M9987.2,5366c-13.3,0-17.5,2.2-21.9,5.3c-2.2,1.5-3.9,2.7-9.7,3.4c-2.4,0.3-4.3,0.4-6.3,0.4l0.3-78.2
		c0-1.5,0.3-2.8,0.6-4.1c0.3-1.3,0.6-2.7,0.6-4.2c0-7.4-6.8-10.6-15-13.6c-2.1-0.5-4.2-1.2-6.5-1.9c-6.9-2.1-15.4-4.7-27.4-5.7
		c-10.6,0.5-16,3.4-16,8.8c0,4.2,3.6,7.5,10.3,9.7c17.2,6.8,22.8,11.7,23.4,11.9v72.9c-51.8,20.1-130,26.5-135.9,26.5
		c-2.3,0-2.9-0.4-3-0.4c-0.6-0.8-0.6-4.7-0.6-7.5c0-6.8,0.3-18,0.6-29.9c0.2-9.6,0.5-19.8,1-31.2l0.3-2.9c0-9.5-9.2-12.2-48.2-13.7
		c-7.4,1.5-14.6,3.4-14.6,9.3c0,1.5,0.7,6.7,9.2,7.8c14.3,3.4,19.5,6.6,22.1,9.3l1.2,57.2c0,14.9,7.6,27.1,17.7,27.1
		c38.7,0,109.2-19.2,150.2-34.5v39.9c0,15.2,6.1,17.5,9.7,17.5c5.5,0,18.1-5.2,19.5-52l48.2-0.8c7.6-0.4,13.5-6.1,13.5-12.8
		C10010.6,5366,9993.6,5366,9987.2,5366z"/>
	<path d="M10273.5,5522.5c-15.3,0-20.1,2.1-25.3,5c-2.9,1.7-5.7,3.2-14.7,4l-70,0.3c-9.4-0.3-9.5-2.3-9.6-4.9
		c-0.3-13.9-0.3-24-0.3-37.8l0.5-3.7c0.3-1.8,0.5-3.3,0.5-4.8c0-6.5-4.6-9-8.3-10.2c2.6-2.5,4.6-5.6,5.8-7.8
		c3.9-10.1,5.7-16.9,5.4-34.8l1-0.2c19.8-3.9,38.5-7.6,62.6-14.9c9.3-4.7,11.2-7.5,11.2-10.5l-1.9-6h-5.1c-2.3,0-5.6,0.6-10.7,2
		c-34.7,7.7-98.8,16-139,16c-10.2,0-18.2-0.6-23.8-1.8c-3.8-0.7-6.6-1-8.7-1c-7.6,0-8.2,4.9-8.2,6.3c0,10.8,39.7,24.6,45,24.6
		c3.2,0,5.5-1.2,7.3-2.1c1.5-0.8,2.9-1.5,4.5-1.9c0.3,0,32.1-4.7,37-5.4v22.2c0,6.1,0.8,10.2,2.1,13.1c-6.2-0.5-13.9-0.8-22.2-0.8
		c-0.6,0-1.2,0-1.8,0c-3.8,0.8-12.8,2.6-12.8,9.3c0,5.5,6.2,7.6,10.2,8.9c5.8,1.7,19.5,5.7,19.8,8.4l0,30.5
		c2.2,22,21.7,25.1,38.5,25.3h125.6c8.5,0,13.2-6.1,13.2-11.9C10301.2,5527.8,10291.8,5522.5,10273.5,5522.5z"/>
	<path d="M10147.6,5401.6c41.8,0,60.8-24.9,60.8-48.1c0-19.8-13.7-41.8-44-49.3c0.4-1.1,0.7-2.2,0.7-3.5c0-7.2-10.6-14.7-20.6-14.7
		c-5.4,0-7.9,3.5-7.9,6.7c0,2,0.8,5.1,4.4,7.9c-0.2,0.3-1.4,1.2-3.8,1.6c-39.2,6.5-53.1,31-53.1,49.9
		C10084,5376.6,10105.9,5401.6,10147.6,5401.6z M10147.3,5323.7c23.5,0,34.2,14.7,34.2,28.3c0,13.5-10.7,28-34.2,28
		c-24.1,0-35.1-14.5-35.1-28C10112.2,5338.3,10123.2,5323.7,10147.3,5323.7z"/>
	<path d="M10218.7,5287.7c21.7,8.9,23.3,13.2,23.4,13.5l0.3,136.5c-13.2,1.7-26.6,2.5-41,2.5c-0.2,0-0.4,0-0.6,0
		c-5.2,0-10.1,0-13.9-0.2c-3.8-0.7-6.5-0.7-9-0.7c-8.6,0-10.4,3.6-10.4,6.7c0,9.7,31.4,17.8,33.9,17.8c3.7,0,5.6-1.5,6.9-2.5
		c0.8-0.6,1.3-1,2.2-1.2c12.3-1.8,22.8-2.9,32.2-3.6v31c0,15.5,5.6,18.7,10.4,18.7c5.3,0,10.4-5.1,14.1-14.4
		c4.1-12.7,4.3-23.6,4.6-52.3v-142.6c0-2,0.3-3.6,0.5-4.8c0.2-1.4,0.4-2.5,0.4-3.5c0-6.7-5.8-9-11.4-11.1
		c-12.3-3.6-25.1-7.4-38.2-7.7c-3.7,0.2-15.1,0.7-15.1,8.5C10208.1,5284.6,10215.8,5286.9,10218.7,5287.7z"/>
	<path d="M10517.3,5433.5c-4.3,0.5-14.4,1.8-14.4,8.8c0,3.8,3,6.8,9.2,8.7c6.6,2.8,12.8,5.5,12.8,8.6v14.8l-87.4,1.4l0.3-14
		c0.3-1.3,0.6-2.7,0.6-4.3c0-10.6-10.4-14.4-45.7-16.5c-3.2,0.7-11.8,2.5-11.8,8.7c0,5.1,5.7,7,7.5,7.6c18.8,6.2,18.8,7.1,18.8,15.2
		c0.9,17.9,1.1,40.5,1.3,56.5l0.2,16.6c0,16.1,7,17.8,10.1,17.8c6.2,0,11.8-7.1,15.7-19.6l91.3-2.3c0.4,7.9,2.2,19.4,10.6,19.4
		c7.5,0,12-9.9,14.6-18.5c3.7-15.4,3.9-43.4,4.1-73.1l0.1-12.5c0-0.8,0.2-1.7,0.5-2.7c0.3-1.3,0.7-2.7,0.7-4.4
		C10556.2,5440.3,10545.1,5437.2,10517.3,5433.5z M10524.9,5522.7l-88,2.5l0.5-30.6l87.6-2.2V5522.7z"/>
	<path d="M10480.9,5391.7c43.9,0,67.6-27,67.6-52.4c0-20.2-14.4-45.6-54.6-53.1c0.7-1.5,1.4-3.3,1.4-5.4c0-9.9-18-14.1-23.7-14.1
		c-6.7,0-8.5,4.4-8.5,7c0,3.6,3,7,5.3,10.5l-2.5,1.2c-40,6.2-54.1,31.5-54.1,51.1C10411.7,5363.3,10436,5391.7,10480.9,5391.7z
		 M10479.9,5306.7c27.4,0,40.1,16.3,40.3,31.4c0,15-12.4,31.1-39.7,31.1c-27.5,0-40-16.1-40-31.1
		C10440.5,5322.9,10452.8,5306.7,10479.9,5306.7z"/>
	<path d="M10587.9,5396.3c-9.8,0-14,1.8-17.7,3.4c-3,1.3-5.7,2.4-12.3,2.8c-35.1,2-101.5,5.3-151.6,5.3c-34.8,0-48.4-1.6-53.8-2.9
		c-3-0.7-5.2-1.1-7.1-1.1c-7.2,0-9.1,4.4-9.1,7c0,10.3,38.9,23.4,44.1,23.4c3.9,0,6.3-1.4,8.2-2.6c1.9-1.1,3.5-2.1,7.5-2.4
		c6.3-0.3,79.7-4.5,90-4.9c15.4-0.6,39.5-1.2,63.5-1.2c21.4,0,41.7,0.7,58.5,1.9c8.4,0,15-5.6,15-12.8
		C10623,5396.3,10599.3,5396.3,10587.9,5396.3z"/>
</g>
<g>
	<path d="M8136.6,6156.1c-6.5-2.8-28.6-9.3-43.2-9.3c-0.1,0-0.2,0-0.3,0c-4.8,0.9-12.8,2.4-12.8,9c0,5.5,6.3,8.1,12.9,10.2
		c23,10.4,25.5,15.1,25.5,16.7v73.8c-10.6,0.2-18.7,0.4-25.6,0.5c-7.9,0.2-14.2,0.4-20.9,0.4c-5.5,0-11.3,0-18.1-0.3
		c-2.2-0.4-4-0.4-5.5-0.4c-8.5,0-9.1,5.1-9.1,6.6c0,10.5,27.3,17.5,29.9,17.5c2.9,0,4.8-1,6.2-1.7c1.3-0.7,2.4-1.3,5.1-1.7l37.8-0.8
		v144.8c0.4,18.3,4.4,27.6,11.9,27.6c11.1,0,17.5-22,17.5-60.4l0.6-206.6c0-2.5,0.6-4.7,1.1-6.8c0.5-2,1-3.8,1-5.8
		C8150.5,6162.1,8143.7,6158.6,8136.6,6156.1z"/>
	<path d="M8042.8,6294.6c-2-1-4.3-2.2-7.6-4.7c-12-8.6-21.9-18.3-27.3-26.5c8.5-14.1,17-28.7,22.3-41.4c1.9-3.4,2.8-6.1,2.8-8.7
		c0-6.2-4.8-13.7-40.1-26.3c-4.8-1.2-9.2-1.4-11.4-1.4c-11.1,0-11.9,6-11.9,7.9c0,4.3,3.8,7.6,9.5,11.1
		c14.7,9.2,17.2,13.1,17.7,13.1c0,0,0.1,0,0.1-0.1c-0.2,0.7-0.9,3.1-1.3,4.2c-24.1,59.6-60.1,94.3-88.6,117.8c-6.6,4.8-7.4,8-7.4,10
		l1.2,6h5.1c6.7,0,49.7-23.7,90.6-76.2c16.1,20.7,30.2,38.2,40.7,51.2l9,11.2c2.6,3.4,6.7,5.4,11.2,5.4c6.1,0,12.5-4.6,12.5-13.1
		c0-4.4-1.9-9.6-5.7-15.4C8053,6300.3,8049.3,6297.9,8042.8,6294.6z"/>
	<path d="M8407.6,6148.3c-7.3,0.7-17.3,1.7-17.3,9.1c0,4.7,4.8,7.5,11.4,10.4c23,10,26.1,14.5,26.4,15.9v82.9
		c-16.6,5.1-41.1,10-60.1,12.9c6.7-18.2,16.6-47.5,22.3-68.3c0.4-1,1.9-2.7,3-4.1c2.3-2.8,4.8-5.6,4.8-9.2c0-8.8-10.8-9.4-28.6-9.4
		c-6.3,0-8.2,0.5-10.4,1.2c-0.8,0.3-1.5,0.5-3.5,0.7c-18.8,2.4-60.3,3.7-64.3,3.7c-12.8,0-23.4-0.8-33.1-2.3
		c-3.1-0.8-5.4-0.8-6.8-0.8c-7.5,0-7.9,5.3-7.9,6.3c0,9.8,33.2,21.2,37.3,21.2c3.3,0,5.4-1.2,7.3-2.3c1.6-1,3.4-2,6.3-2.6
		c12.4-1.4,28.5-2.5,42.6-3.5c7.9-0.5,15.2-1,21-1.5c-1.6,24-6.4,56.7-11,74.2c-42.1,6.9-64.2,8.4-75.4,8.4c-17.1,0-32.4-2-39-3.4
		c-1.8-0.4-3.5-0.6-4.6-0.6c-5.4,0-7.9,3.5-7.9,6.6c0,9.7,40,26.2,45.6,26.2c3.6,0,5.9-1.3,8-2.4c1.8-1,3.6-2,6.9-2.6l3.5-0.7
		c7.3-1.4,18.3-3.6,28.1-5v85.4c0,15.2,5.9,17.5,9.4,17.5c5.8,0,10.6-6.7,14.2-20c3.7-14.6,5.8-57.2,5.5-87.9
		c26.1-4.6,62.6-13.4,86.8-21.7v139.3c0,6.5,0,24,10.1,24c5.2,0,8.9-5,12.3-10.9c4-11.9,6.2-28.3,6.7-48.9l0.6-205.7
		c0-1.5,0.4-2.8,0.9-4.2c0.5-1.6,1-3.2,1-5C8459.6,6161.8,8450.7,6157.8,8407.6,6148.3z"/>
	<path d="M8770.5,6375.3c-6.9,0-10.2,1.3-14,2.8c-3.4,1.4-7.7,3-16.9,4.3l-24.7,1.2c-14.4,0.7-23.8,1.1-32.1,1.3l0.8-46.5
		c0-1,0.2-2,0.4-3c0.3-1.2,0.5-2.4,0.5-3.8c0-9.2-9.3-11-36.6-13.8c-3.4,0.2-13.8,0.7-13.8,8.2c0,3.6,3.2,6.7,7.8,8
		c9.1,4.5,12.1,6.8,12.3,8.7v42.3h-0.3c-13.6,0.3-25.7,0.5-37,0.5c-31.8,0-55.4-1.6-78.3-5.1c-1.8-0.5-3.6-0.5-4.9-0.5
		c-9.6,0-10.1,6.1-10.1,7.3c0,11,41.3,24.9,46.9,24.9c4.1,0,7-1.2,10.4-2.6c2.8-1.1,6.3-2.6,10.9-3.9c26.2-1.7,66.1-3.7,107.6-3.7
		c33.6,0,64.9,1.3,91.2,3.7h3.1c12.3,0,17.8-6,17.8-11.9C8811.8,6375.8,8774.7,6375.3,8770.5,6375.3z"/>
	<path d="M8592.9,6214.2c1.4,0,2.6-0.2,3.7-0.5c-1.5,1.2-2.6,3.1-2.6,5.9c0,2.3,0.7,4.9,2.3,8.1c15,31.5,19.7,45.8,22.5,56.6
		c1.4,5.8,3.9,10.2,7,12.8c-2.2,0-4.3,0.1-6.3,0.1c-19.5,0-34.8-1.1-45.6-3.3c-3.1-0.7-5.6-1.1-7.6-1.1c-7.6,0-8.2,4.9-8.2,6.4
		c0,10.4,30.7,22.7,35.7,22.7c2.8,0,4.9-0.9,6.8-1.7c1.8-0.8,3.8-1.7,6.9-2.3c39-3.5,77.6-5.2,114.9-5.2l30,0.3
		c12.5,0,19-6.4,19-12.8c0-2.3-1.2-14.1-25.5-14.1c-14.6,0-18.1,1.5-21.8,3.7c-1.3,0.8-2.3,1.4-5.9,1.9c-3.6,0.5-8,1-12.4,1.3
		c5-11.2,11.2-26.8,16.8-41l4.6-11.6c0.8-2.2,1.9-4,2.7-5.6c1.5-2.6,2.9-5.1,2.9-8c0-12.6-34.7-19.4-38.8-19.4
		c-4.4,0-14.7,0-14.7,7.6c0,5.1,5.3,8,7.1,9c10.4,6.2,10.1,8.1,9.4,13.1c-3.7,23-9.7,47.6-13.3,57.2c-15.6,1.2-30.1,2-43.2,2.5
		c3-2.7,6.1-8,7.6-18.2l-0.3-11c-1.1-17.2-13.3-29.1-36.7-50.6c-5.3-4.7-8.3-4.7-9.3-4.7c-0.3,0-0.7,0-1,0.1
		c0.2-0.1,0.5-0.3,0.7-0.4c1.7-0.9,3.5-1.9,6.5-2.5c40.6-2.6,99.8-5.3,140.4-5.3c8.1,0,24.9,0,24.9-14.1c0-7.5-7.9-15-25.5-15
		c-18.5,0-24,2.5-29.7,6c-2.9,1.8-5.3,3.3-13.8,3.9c-9.8,0.9-44.2,4-77.8,4c-23.2,0-41.2-1.2-54.9-3.6c-3.2-0.7-5.6-1-7.6-1
		c-6.5,0-8.2,4.2-8.2,6.6C8554.7,6201.6,8587.5,6214.2,8592.9,6214.2z"/>
</g>
<g>
	<path d="M6057.6,6437.3c12.5,0,73.5-14.2,120.4-35.6c32.8,8.8,97.3,22.9,103.2,22.9c9.5,0,13.8-5.2,13.8-10.4
		c0-18.3-43.3-21.2-43.8-21.2c-2.5,0-4.6,0.3-6.8,0.6s-4.7,0.7-8.3,0.7c-6.4,0-22-1.9-34.4-4.8c13.7-8.5,32.1-21.5,47.2-34.7
		l2.2-1.4c5-3.1,10.3-6.4,10.3-11.5c0-6.8-7.9-9.4-28.3-9.4c-5,0-7.1,0.6-9.2,1.3c-1.9,0.6-4.1,1.2-10.2,1.5
		c-9.2,0-21.1,0.3-32.9,0.6c-11.8,0.3-23.6,0.6-32.6,0.6c-28.7,0-49.2-1.2-60.7-3.8c-2-0.3-3.7-0.5-4.9-0.5c-6.5,0-8.2,4-8.2,6.3
		c0,9.5,31.7,22.4,38.2,22.4c3.2,0,5.5-1,7.6-2c1.9-0.9,3.8-1.8,6.7-2.3c15.7-1.3,54.6-2.8,80.7-3.6
		c-42.6,37.5-103.6,57.4-146.8,69.3c-8.6,1.9-12.4,4.6-12.4,8.7C6048.2,6432.8,6049.1,6437.3,6057.6,6437.3z"/>
	<path d="M6284.6,6443.1c-9.7,0-13.1,1.3-17,3.1c-2,1-3.9,1.8-8.3,2.5c-25.5,2.7-119.6,5.8-152.6,5.8c-27.1,0-48.2-1.3-61.4-3.7
		c-2-0.4-3.7-0.6-5.4-0.6c-6.7,0-8.5,4.4-8.5,7c0,11.7,41.7,23.7,46.9,23.7c4.6,0,7.4-1.6,9.8-3.1c2.5-1.5,5.2-3,11.1-3.7
		c12-0.7,29.4-1.4,45.8-2.2l16.2-0.7l0,25c0.1,2.1,0.3,4,0.6,5.7c-25.7,5-51.3,23.5-51.3,54.6c0,34.4,32.9,54.9,64.8,54.9
		c31.9,0,64.8-20.5,64.8-54.9c0-31.2-26.6-51.1-55.1-54.9c3.4-7.9,4.4-19.4,4.8-31.1c12.5-0.5,31.5-0.7,51.3-0.7
		c22.5,0,45.3,0.3,61.2,0.9c8.4,0,14.7-5.2,14.7-12.2C6317.3,6443.1,6295.2,6443.1,6284.6,6443.1z M6213.9,6555.6
		c0,15.7-11.9,32.6-38.2,32.6s-38.2-16.9-38.2-32.6c0-15.7,11.9-32.6,38.2-32.6S6213.9,6539.9,6213.9,6555.6z"/>
	<path d="M6597.8,6449.3c-10.9,0-14.7,1.6-18.1,3c-2.3,1-4.1,1.8-9.6,1.9c-67.6,2.7-131.5,4.3-171.1,4.3c-19.9,0-39.2-0.2-45.4-1.7
		c-3.1-0.8-5.4-0.8-6.8-0.8c-8.6,0-8.8,6-8.8,6.7c0,9.6,37.5,22.1,45.3,22.1c4.4,0,7.5-1.2,10.6-2.4c3.2-1.2,6.5-2.5,12.4-2.9
		c17.5-1.2,43.4-2.3,63.5-2.7l-0.3,64.7c0,16.8,6.7,19.3,10.7,19.3c5.8,0,10.9-5.8,14.4-16.3c5.1-13.6,5.3-29.2,5.3-69.2
		c7.1-0.5,17.9-0.8,32.3-0.8c28.5,0,62.4,1,80.4,1.9c8.9,0,15.6-5.5,15.6-12.9C6627.9,6449.3,6607.6,6449.3,6597.8,6449.3z"/>
	<path d="M6387.2,6350.4c8.2,3.1,13.2,6.1,13.7,6.1c0,0,0,0,0,0c1,7.4,3.3,32.8,5,51.9c1,11.5,1.9,20.7,2.1,22.8
		c0.9,5.4,3,17.9,11.5,17.9c5.8,0,10.4-5.9,13.9-18c8.6-0.2,21.9-0.5,36.4-0.8c27.3-0.6,58.7-1.3,70.9-1.3c10.6,0,15.3-5,15.3-10
		c0-2.9-1.6-7.8-11.3-11.1c2.4-9.8,7-29.4,11.2-52.9c0.6-1.4,2.3-3.2,3.8-4.7c2.4-2.4,4.6-4.7,4.6-8c0-5-3.4-10-28.9-10
		c-6.3,0-8.5,0.6-11,1.5c-1.2,0.4-2.2,0.8-5.1,1c-10.7,0.6-69.8,2.5-90.3,2.5c-2.9,0-10.8-1.1-18.4-2.2c-7.8-1.1-15.4-2.1-18.3-2.1
		c0,0,0,0,0,0c-9.8,0.4-14.8,3.2-14.8,8.2C6377.7,6346.6,6384.1,6349.1,6387.2,6350.4z M6432.3,6356.2c22.9-0.9,72-2.4,93-2.9
		c0,13.4-0.9,36.8-1.7,55.3c-1.1,0.3-2,0.5-2.9,0.8c-3.3,0.9-5.8,1.6-13.3,2.2l-72.7,1.2l-2.8-56.3L6432.3,6356.2z"/>
	<path d="M6552,6571.5c-14.2,0-18.8,2.1-23.7,5c-2.9,1.7-5.6,3.3-14.6,4l-66.1,0.6c-9.2-0.5-9.3-2.2-9.4-5.6
		c-0.3-10.8-0.3-27.4-0.3-39.9l0.5-3.9c0.3-1.7,0.5-3.2,0.5-4.4c0-8.5-7.8-10.2-11.2-10.9c-6.5-1-18.6-2.1-33-2.1
		c-0.7,0-1.5,0-2.2,0c-4.7,1.1-13.6,3-13.6,9.6c0,5.7,7.3,7.7,9.5,8.3c10,2.9,19.2,6.1,19.5,8.8l0.3,32.8
		c1.8,22.5,22.7,25.1,38.2,25.1h121.9c7.7,0,13.5-5,13.5-11.6C6581.5,6571.5,6560.1,6571.5,6552,6571.5z"/>
</g>
<g>
	<path d="M3878.4,6247.1c-14.8,0-19.3,2.2-24.1,5.3c-2.1,1.3-3.8,2.5-8.2,3.4c-2.5,0.3-5.2,0.4-7.7,0.4c-0.1,0-0.2,0-0.3,0l0.3-91.8
		c0-1.1,0.3-2.1,0.6-3.3c0.3-1.3,0.7-2.8,0.7-4.4c0-16.4-48.2-20.6-48.9-20.6c0,0,0,0,0,0c-4.8,0.2-16,0.7-16,8.5
		c0,4,3.6,7.2,10.2,9.3c19.5,8.5,23.1,12.4,23.5,12.4c0,0,0,0,0.1-0.1v178.6c0.2,5.2,0.6,18.9,10.1,18.9c4.9,0,9.3-4.4,13.8-13.9
		c3.3-9.4,5.1-23.8,5.5-75.3l49.3-1.1c8,0,14.1-5.5,14.1-12.8C3901.1,6247.1,3884.6,6247.1,3878.4,6247.1z"/>
	<path d="M3839.4,6382.6c-15.1,0-19.8,2-24.8,5c-2.9,1.7-5.7,3.2-14.8,4l-55.6,0.6c-10.1-0.6-10.2-2.7-10.3-5.6
		c-0.3-10.8-0.3-29-0.3-42.1l0.5-3.7c0.3-1.8,0.5-3.3,0.5-4.8c0-8.5-7.9-10.2-11.1-10.9c-5.1-0.8-17.5-2.1-33.2-2.1
		c-0.4,0-0.8,0-1.3,0c-4.6,0.8-14.1,2.4-14.1,9.4c0,6.1,7.3,8,9.5,8.6c7.3,2.1,19.4,5.7,19.5,8.4l0.3,35.3
		c1.8,22.1,21.5,25.2,38.5,25.5h111.6c7.7,0,13.5-5.1,13.5-11.9C3867.7,6382.6,3846.4,6382.6,3839.4,6382.6z"/>
	<path d="M3763.5,6242.6c0-26.6-18.4-47.4-49.5-56.6c1.1-1.9,2.2-4.2,2.2-6.8c0-9.2-15.1-15-25.5-15c-8.7,0-9.1,5.5-9.1,6.6
		c0,3.8,3,6.7,5,8c1.2,1.6,1.6,2.7,1.9,2.7c0,0,0,0,0.1,0c-0.2,0.2-1.1,0.9-4.8,1.6c-46.6,7.2-63.1,36.5-63.1,59.5
		c0,29.9,25,60.2,72.8,60.2C3737.3,6302.8,3763.5,6272.2,3763.5,6242.6z M3650.3,6242.6c0-17.8,13.2-36.9,42.2-36.9
		c28.4,0,41.3,19.2,41.3,36.9c0,17.7-12.9,36.6-41.3,36.6C3663.5,6279.3,3650.3,6260.3,3650.3,6242.6z"/>
	<path d="M4100.7,6259.6l-1.5-5.7h-5.1c-1.8,0-4.9,0.3-9.4,1.9c-15,6.1-52.7,17.6-97.6,21.6c-4.1,0-5-0.5-5.2-0.6
		c0,0-0.5-0.7-0.5-3.6c0-8.7,0.6-57.5,0.9-78.4c0.5-0.1,1-0.2,1.6-0.3c8.5-0.4,19.3-0.8,31.4-1.1c15.6-0.5,33.5-1.1,51.8-2
		c9.8,0,15.6-6.2,15.6-12.2c0-12.5-17-12.5-23.4-12.5c-11.5,0-15.5,1.9-20.1,4.7c-2.8,1.7-5.2,3.2-13.6,3.7l-9.5,0.5
		c-10.9,0.5-22,1.1-37.2,1.3c-5.6-1.6-23.1-4.5-39-4.7c-3.8,0.8-12.7,2.8-12.7,9.3c0,2.4,1.4,6.7,11.6,8.7c5,1.8,12.5,4.6,13.2,7.5
		l1.2,78.2c0,11.9,7.7,29.8,19.3,29.8C3996.2,6305.6,4100.7,6274.8,4100.7,6259.6z"/>
	<path d="M4149.2,6143.1c-9.5-3.2-22-7-34.5-8.3c-5.3,0.5-15.2,1.3-15.2,8.5c0,4.9,5.1,7.7,11.5,10.6c12.8,5.3,20.2,10.9,21,11.1
		v49.3c-10.2,0.5-28.6,0.7-44.4,0.7l-31.5-0.3c-9.3,0-10.7,4.4-10.7,7c0,9.5,23.4,16.9,27.7,16.9c3,0,5-1,7-1.9c2-1,4.2-2,7.9-2.7
		l44-0.6v53.6c0,11.1,1,25.6,9.1,27.5c-0.2,0-0.4,0-0.7,0c-2.2-0.4-4.1-0.4-5.5-0.4c-5.9,0-8.8,1.2-11.1,2.2
		c-1.7,0.7-2.7,1.2-5.6,1.2c-37,1.9-66.5,2.8-90.1,2.8c-21.6,0-36.9-0.8-46.8-2.4c-2.2-0.4-3.7-0.4-5.1-0.4c-8.7,0-9.1,5.6-9.1,6.7
		c0,9.1,30.2,20.3,36.7,20.3c4,0,6.8-1.3,9.3-2.4c2.7-1.3,5.5-2.5,11-2.8c35.5-1.1,80.1-2.8,102-3.8v81.5c0,15.1,7.7,16.2,10.1,16.2
		c6.3,0,12.2-7,14.9-17.8c4.9-20.2,5.1-39.6,5.1-81.3c0-1.1,0.7-2.5,1.3-3.9c0.9-1.8,1.8-3.7,1.8-5.9c0-7.4-8.9-9-15.4-9.5
		c6.4-0.7,16.3-9.4,17-56.4l0.3-92c0.1-1.4,0.4-2.6,0.7-3.8c0.4-1.7,0.8-3.4,0.8-5.3C4162.6,6149.3,4156.3,6145.8,4149.2,6143.1z"/>
	<path d="M4367.3,6295c10,0,22.4,0,22.4-8.8c0-0.7-0.1-1.3-0.3-1.9c7.2,3.1,14.7,5.2,16.8,5.2c3.5,0,5.7-1.3,7.3-2.3
		c1.2-0.7,2.2-1.4,3.6-1.7l2.8-0.2c6.7-0.4,13.9-0.9,20.1-1.4l-0.3,52.3c0.3,8.9,0.7,23.8,10.4,23.8c4.3,0,7.5-3.6,10.3-7.5
		c6.5-11,8.4-20,9.4-62.9l0.3-124.3c0-1.4,0.4-2.7,0.8-4.2c0.5-1.6,1-3.4,1-5.4c0-17.4-52.2-20.9-52.7-20.9c-0.2,0-15,0.7-15,8.8
		c0,5.1,5.4,7.1,12.1,9.6c18.3,7.8,23.4,14.2,23.5,16.3v33.6c-10.5,0.7-18.8,1.2-29.2,1.2c-4.8,0-14.3,0-21.2-0.5
		c0.6-0.8,1.3-1.6,1.8-2.2c2.2-2.6,4.4-5.2,4.4-8.6c0-8.8-12.6-8.8-18.7-8.8c-10.4,0-13.4,0.7-16.2,1.5c-1.1,0.3-1.8,0.6-4.5,0.7
		c-27.4,1.5-47.3,1.9-68.9,2.1c-8.7-3-24.5-4.3-38.6-5.1c-6.7,1.4-14,3.4-14,9.3c0,6,6.9,8,9.8,8.9c11,3.5,14.8,5.7,15.7,5.7
		c0.1,0,0.2-0.1,0.2-0.2l7.4,75.3c1.5,22.4,2.1,30.7,10,30.7c7.9,0,11.8-9.6,13.8-16.5l20.4-0.5
		C4331.3,6295.7,4354.8,6295,4367.3,6295z M4385.6,6221c6.7,3.5,15.7,7,19.8,7c3.5,0,5.6-1.5,7.1-2.5c1.1-0.8,1.9-1.3,3.7-1.6
		c4.4-0.5,14.1-1.3,24-1.7l-0.2,41.8c-11.5,1.1-24.8,1.7-39.4,1.7l-14.5-0.3c-4,0-6.6,0.7-8.3,1.7L4385.6,6221z M4291.4,6206.9
		l65.8-1.7l-0.1,6.4c-0.5,22.1-1.1,49.1-2.2,63.5c-11.5,3.1-19.5,3.2-61.1,3.2L4291.4,6206.9z"/>
	<path d="M4468.8,6385.3c-15.2,0-19.9,2-25,4.9c-2.9,1.6-5.7,3.2-14.9,3.8l-64.3,0.6c-10-0.6-10-2.6-10-5.2
		c-0.3-11.4-0.3-28-0.3-41.6c0-1.8,0.3-3.4,0.5-4.7c0.2-1.4,0.4-2.6,0.4-3.7c0-8.1-7.3-9.8-10.9-10.7c-6.8-1-19.3-2.1-33.6-2.1
		c-0.5,0-0.9,0-1.4,0c-4.5,0.8-13.8,2.4-13.8,9.4c0,2,0.9,6.8,9.2,8.3c11.1,3.5,19.6,6.4,19.9,9.1l0.3,33.6
		c1.3,22.4,21.1,25.6,38.2,25.9h120.3c8.8,0,13.5-6.1,13.5-11.9C4496.8,6385.3,4476.4,6385.3,4468.8,6385.3z"/>
</g>
<g>
	<path d="M2082.9,6991.7c-4.8,0-15.9,0-15.9,7.9c0,3.6,2.9,6.6,9.2,9.8c20.9,10.9,22,16.1,22,16.2V7135l-29.1,0.7v-100.2
		c0-0.8,0.2-1.7,0.4-2.6c0.3-1.2,0.5-2.5,0.5-3.9c0-9.6-9.6-14.1-44.2-19.9c-4.6,0.4-14.2,1.3-14.2,8.5c0,4.2,3.9,6.8,9.7,9.5
		c7.7,3.8,19.4,9.4,19.7,12.7v118.3c-30,13.8-78.7,24.7-96,24.7c-1.3,0-3.3-0.1-3.4,0c-0.1-0.5-1.5-99.8-1.5-99.8l2-0.7
		c14.6-0.1,40.8-1,58.9-1.9c7.6-0.5,13.2-5.4,13.2-11.9c0-6.4-6.3-13-20.6-13.5c-15.4,0-19.7,2.1-24,5c-1.8,1.2-3.1,2.1-7.1,2.7
		c-5.5,0.6-11.6,0.6-16.9,0.6c-0.2,0-8.5,0.2-8.5,0.2c-10.2-2.6-22.2-5.3-36.7-5.3c-0.3,0-0.6,0-0.9,0c-4.6,1-13.3,2.9-13.3,9.6
		c0,2,0.9,6.8,8.7,8.1l2.6,1.1c11,4.5,13.8,6,14,8.8l1.5,98.5c0.4,11.3,7.5,28.1,21.2,28.1c0.4,0,47.3-6.2,106.8-36v70.8
		c0,19.8,6.9,22.7,11,22.7c8,0,14.1-11,15.9-29.1l1.2-86l29.1-0.7v115.4c0,18.2,6.7,20.9,10.7,20.9c8.2,0,14.9-13.5,16.9-34.8
		l1.2-233.5c0-1.3,0.3-2.5,0.5-3.6c0.3-1.5,0.5-2.8,0.5-4.1C2127.9,7005.2,2118.9,7000.5,2082.9,6991.7z"/>
	<path d="M2376.2,6990.2L2376.2,6990.2c-4.2,0.3-15.2,1.2-15.2,8.8c0,5.7,6.4,8.5,10.9,10c18.7,7.8,23.6,13.5,23.8,14.4v47
		c-14.8,1.3-34.8,2-48.4,2l-15.1-0.3c-9.3,0-10.7,4.4-10.7,7c0,8.9,24.7,16.5,30.5,16.5c3.5,0,6-1,8.3-1.9c2.1-0.8,4-1.6,7.1-1.8
		c3.5-0.1,7.3-0.5,11.8-0.9c4.7-0.4,10.1-0.9,16.7-1.3v69.8c0,7.8,0,26.1,10.7,26.1c5.5,0,8.8-5.6,9.9-7.4
		c5.6-8.9,8.4-23.3,8.8-45.4l0.3-114.5c0-1.8,0.3-3.1,0.5-4.2l0.4-3.5C2426.2,6995.6,2377.2,6990.2,2376.2,6990.2z"/>
	<path d="M2371.6,7176.7c0.9-1.5,1.7-3.3,1.7-5.5c0-6.7-9.8-11.8-17.8-14.2c2.9-1.7,5.1-5.1,5.1-10.2c0-5.7-2.4-12.6-7.5-20.9
		c-7.2-9.9-11.2-12-17.3-14.7c-5.3-2.4-12.5-5.5-28.1-20.4c12.7-15.5,22.3-28,32-43.5c0.9-1.4,2.5-3,4-4.5c3-2.9,5.8-5.7,5.8-9.4
		c0-8.2-10.6-8.8-22.4-8.8c-7.7,0-9.7,0.7-12.1,1.9c-0.8,0.4-1.7,0.8-4.6,1.2l-4.4,0.2c-12.4,0.6-31.1,1.6-49.1,1.6
		c-9.2,0-22.4-0.2-32-1.5l-2.7-0.3c-1.9-0.2-3.4-0.4-4.6-0.4c-8.7,0-9.1,5.5-9.1,6.6c0,10.1,31.5,19.7,35.1,19.7c3.1,0,5.2-1,7-1.9
		c1.8-0.9,3.8-1.9,9.3-2.7l0.8-0.6c10-0.3,29-1.2,47.1-2.4c-22.4,38.1-65.5,81.8-108.2,109c-7.2,4.8-8.1,7.6-8.1,9.8l0.9,5.7h5.1
		c8.4,0,64.8-31.8,97.8-66.9c14.6,15.6,30.3,33.2,40.2,44.4l4.2,4.7c1.4,1.6,2.8,2.7,4.1,3.6c-3.3,1.2-4.8,4-4.8,6.6
		c0,3.1,1.8,6.1,4.3,7.7c1.8,1.8,2.5,3.7,2.3,4.3c-39.1,5.4-56.7,31.6-56.7,55.1c0,27.3,22,54.9,64.2,54.9c42.9,0,66-28.5,66-55.2
		C2419.1,7210.4,2406.5,7185.7,2371.6,7176.7z M2354,7260.5c-26.2,0-38.2-16.7-38.2-32.3c0-15.9,11.9-32.9,38.2-32.9
		c26.4,0,38.2,16.5,38.2,32.9C2392.2,7243.7,2380.2,7260.5,2354,7260.5z"/>
	<path d="M2671.1,7156.6c-4.3,0.6-14.4,1.8-14.4,8.8c0,2.2,1.1,6.2,9.2,8.7c6.6,2.8,12.8,5.5,12.8,8.6v14.8l-87.4,1.4l0.3-14
		c0.3-1.3,0.6-2.7,0.6-4.3c0-10.6-10.4-14.4-45.7-16.4c-2.9,0.6-11.8,2.4-11.8,8.7c0,5.1,5.4,7,7.5,7.7c18.8,6.2,18.8,6.9,18.8,15.2
		c0.9,17.9,1.1,40.5,1.3,56.5l0.2,16.6c0,16.1,7,17.8,10.1,17.8c6.2,0,11.8-7.1,15.7-19.6l91.3-2.2c0.4,7.9,2.2,19.4,10.6,19.4
		c7.4,0,12-9.9,14.6-18.5c3.6-15.4,3.8-43.5,4.1-73.1l0.1-12.5c0-0.8,0.2-1.7,0.5-2.7c0.4-1.3,0.7-2.7,0.7-4.4
		C2710,7163.4,2698.9,7160.4,2671.1,7156.6z M2678.7,7245.8l-88,2.5l0.5-30.6l87.6-2.2V7245.8z"/>
	<path d="M2741.7,7119.5c-9.8,0-14,1.8-17.7,3.4c-3,1.3-5.7,2.4-12.3,2.8c-35.1,2-101.5,5.3-151.6,5.3c-27,0-46.2-1.1-53.8-3
		c-3-0.7-5.2-1.1-7.1-1.1c-7.2,0-9.1,4.4-9.1,7c0,10.3,38.9,23.3,44.1,23.3c3.9,0,6.3-1.4,8.2-2.6c1.9-1.1,3.5-2.1,7.5-2.3
		c6.1-0.3,79.5-4.5,90-5c15.4-0.6,39.4-1.2,63.5-1.2c21.6,0,41.9,0.7,58.5,1.9c8.4,0,15-5.6,15-12.9
		C2776.8,7119.5,2753.1,7119.5,2741.7,7119.5z"/>
	<path d="M2634.7,7114.9c43.9,0,67.6-27,67.6-52.5c0-20.2-14.4-45.6-54.6-53c0.7-1.5,1.4-3.2,1.4-5.4c0-9.9-18-14.1-23.7-14.1
		c-6.7,0-8.5,4.4-8.5,7c0,3.6,3,7,5.3,10.5l-2.5,1.2c-40,6.2-54.1,31.5-54.1,51.1C2565.5,7086.4,2589.8,7114.9,2634.7,7114.9z
		 M2633.7,7029.8c27.4,0,40.1,16.3,40.3,31.4c0,15-12.4,31-39.7,31c-27.5,0-40-16.1-40-31
		C2594.3,7046.1,2606.7,7029.8,2633.7,7029.8z"/>
</g>
<g>
	<path class="st0" d="M5732.6,2164.8c108.4,0,167.6-78.9,236.6-78.9s98.6,29.6,98.6,157.7c0,128.1-39.4,147.9-39.4,276
		s78.9,187.3,78.9,414s-49.3,325.3-29.6,423.9c15.5,77.3,78.9,118.3,147.9,187.3c69,69,69,187.3,128.1,246.4
		c98.6,98.6,253.8,118.3,335.1,118.3c177.4,0,315.4,59.1,502.7,167.6c187.3,108.4,266.1,207,295.7,374.6
		c207-29.6,509.7-121.6,611.1-236.6c147.9-167.6,255.7-199.5,364.7-226.7c157.7-39.4,236.6-98.6,315.4-118.3
		c78.9-19.7,157.7-19.7,197.1-138c39.4-118.3,118.3-197.1,187.3-266.1s147.9-187.3,207-325.3c41.8-97.6,138-98.6,138-157.7
		c0-49.3-39.4-108.4-39.4-197.1c0-167.6,39.4-335.1-9.9-502.7c-49.3-167.6-234.8-443.6-264.4-512.6c-29.6-69-39.8-152-39.8-280.2
		s-159.1-152.9-208.4-162.7c-49.3-9.9-150.6-82.4-209.7-121.9c-25.9-17.3-76.1-56.3-135.3-115.4c-59.1-59.1-61.5-112-108.4-108.4
		c-49.1,3.8-49.3,49.3-147.9,49.3c-59.1,0-78.9-39.4-138-19.7c-59.1,19.7-59.1,138-167.6,128.1c-108.4-9.9-118.3-78.9-108.4-128.1
		c19.7-98.6-98.6-98.6-128.1-29.6c-29.6,69-128.1,187.3-226.7,187.3c-138,0-138,59.1-246.4,49.3c-108.4-9.9-147.9-78.9-216.9-78.9
		c-147.9,0-187.3,69-216.9,138c-29.6,69-88.7,108.4-246.4,108.4c-108.9,0-177.4,59.1-246.4,108.4s-69,128.1-157.7,138
		c-88.7,9.9-167.6,29.6-256.3,39.4c-88.7,9.9-108.4,9.9-177.4,59.1s-147.9,29.6-197.1,78.9s-43.2,90.3-59.1,138
		c0,0-9.9,49.3,0,118.3S5624.2,2164.8,5732.6,2164.8z"/>
	<path class="st0" d="M9783.9,420.1c0,0,0.3,0.2,0.8,0.5C9784.8,419.7,9784.6,419.4,9783.9,420.1z"/>
	<path class="st0" d="M9271.3,1681.8c0,98.6,118.3,276,177.4,374.6c59.1,98.6,168.4,315.9,157.7,433.7
		c-19.7,216.9-15.5,392.4,0,433.7c59.1,157.7-59.1,138-118.3,256.3c-59.1,118.3-78.9,177.4-138,236.6
		c-59.1,59.1-234,257-256.3,335.1c-39.4,138-118.3,118.3-216.9,157.7c-106.7,42.7-354.9,118.3-453.4,177.4
		c-98.6,59.1-236.6,197.1-236.6,197.1s138,19.7,236.6,19.7c98.6,0,276-39.4,394.3-118.3c118.3-78.9,276-118.3,433.7-118.3
		c216.9,0,256.3-78.9,295.7-138c39.4-59.1,98.6-118.3,177.4-118.3c59.1,0,118.3,0,118.3,0s59.1-59.1,138-118.3
		s216.9-78.9,335.1-78.9c118.3,0,236.6-98.6,276-157.7c39.4-59.1,177.4-256.3,433.7-256.3c216.9,0,315.4,0,315.4,0
		s-276-197.1-276-414c0-118.3,39.4-197.1,39.4-374.6c0-177.4,157.7-571.7,157.7-670.3c0-98.6-78.9-276-138-315.4
		c-59.1-39.4-177.4-118.3-177.4-236.6c0-98.6,0-177.4-118.3-216.9c-118.3-39.4-157.7-138-157.7-197.1s19.7-276,19.7-276
		s-78.9,39.4-118.3,59.1c-39.4,19.7-138,19.7-157.7-39.4s-98.6-59.1-118.3,19.7c-19.7,78.9-19.7,78.9-39.4,138s-78.9,78.9-138,0
		c-57.3-76.4-318.4-245.5-334.4-255.8c-2.3,13.6-85,181-158.5,236.1c-78.9,59.1-39.4,177.4-39.4,177.4S9468.4,775,9350.2,775
		c-118.3,0-157.7,98.6-216.9,98.6c-59.1,0-98.6-59.1-157.7-59.1c-98.6,0-157.7,118.3-197.1,216.9c-23.2,57.9-78.9,78.9-78.9,78.9
		c177.4,157.7,295.7,177.4,433.7,197.1C9271.3,1327,9271.3,1583.3,9271.3,1681.8z"/>
	<path class="st0" d="M10986.4,991.9c98.6,78.9,59.1,197.1,118.3,295.7c36.6,60.9,197.1,197.1,236.6,276
		c39.4,78.9,59.1,197.1,19.7,295.7c-39.4,98.6-138,394.3-138,552c0,98.6-39.4,256.3-39.4,394.3c0,138,197.1,354.9,276,394.3
		c78.9,39.4,118.3,59.1,236.6,59.1c118.3,0,216.9-39.4,335.1-78.9c118.3-39.4,276-118.3,374.6-197.1
		c98.6-78.9,216.9-98.6,335.1-118.3c118.3-19.7,394.3-216.9,532.3-295.7c138-78.9,571.7-236.6,650.6-315.4
		c78.9-78.9,236.6-177.4,315.4-216.9c78.9-39.4,138-19.7,197.1-59.1c59.1-39.4,39.4-78.9,39.4-118.3c0-39.4,19.7-59.1,39.4-118.3
		c19.7-59.1,78.9-216.9-59.1-256.3c-138-39.4-118.3-39.4-118.3-138c0-100.5-59.1-197.1-138-236.6c-78.9-39.4-177.4-98.6-295.7-98.6
		s-157.7,39.4-216.9,98.6c-59.1,59.1-157.7-59.1-216.9-98.6c-59.1-39.4-236.6-157.7-276-197.1c-31.2-31.2-105.7-58.3-118.3-197.1
		c-19.7-216.9-98.6-276-197.1-295.7s-116.3,66.6-177.4,78.9c-98.6,19.7-216.9-19.7-276-59.1c-59.1-39.4-74.3-72.5-157.7-98.6
		c-73.4-23-172-19.7-236.6-19.7c-138,0-118.3,157.7-335.1,157.7c-138,0-216.9-39.4-335.1-39.4s-177.4,98.6-276,118.3
		c-98.6,19.7-276,39.4-276,39.4s-2.6,99.6-19.7,236.6C10769.6,893.3,10909.4,930.3,10986.4,991.9z"/>
	<path class="st0" d="M15422.1,1642.4c-19.7-59.1-59.1-118.3-78.9-157.7c-12.5-24.9-39.4-78.9-59.1-98.6s-39.4-78.9-98.6-78.9
		c-59.1,0-78.9,78.9-78.9,118.3c0,39.4,19.7,118.3-39.4,157.7c-59.1,39.4-78.9,59.1-78.9,118.3s0,138,39.4,197.1
		c39.4,59.1,78.9,118.3,197.1,157.7c118.3,39.4,197.1,19.7,216.9-39.4c19.7-59.1,59.1-98.6,59.1-157.7
		C15500.9,1800.1,15441.8,1701.6,15422.1,1642.4z"/>
	<path class="st0" d="M14929.2,2312.7c-55.8,27.9-118.3,118.3-177.4,78.9c-59.1-39.4-118.3-138-177.4-197.1
		c-50.3-50.3-138-138-138-138s-276,157.7-354.9,236.6c-78.9,78.9-335.1,177.4-473.1,236.6s-591.4,335.1-709.7,374.6
		c0,0,127.4,107.7,197.1,177.4c138,138,19.7,394.3-39.4,512.6c-59.1,118.3-59.1,315.4-98.6,433.7c-19.7,59.1-39.4,98.6-39.4,197.1
		c0,98.6,107.2,173.5,157.7,197.1c126.6,59.4,209.7,193.1,276,276c78.9,98.6,197.1,118.3,354.9,512.6c0,0,59.1-78.9,138-177.4
		c69.7-87.1,20.4-334.6,157.7-492.9c136.3-157.1,200.2-283.6,414-354.9c236.6-78.9,98.6-177.4,118.3-315.4
		c8.8-61.4,81.8-181.4,118.3-295.7c45.5-142.5,57-280.4,78.9-335.1c39.4-98.6,133.8-18.2,118.3,59.1
		c-19.7,98.6,19.7,157.7,98.6,157.7c78.9,0,98.6-78.9,98.6-157.7c0-78.9-78.9-98.6-138-157.7c-59.1-59.1-78.9-98.6-78.9-197.1
		c0-157.7,118.3-236.6,216.9-295.7c98.6-59.1,39.4-157.7,39.4-256.3C15086.9,2329.2,15047.5,2253.6,14929.2,2312.7z"/>
	<path class="st0" d="M12839.5,4264.4c0-157.7,63-236.1,78.9-394.3c19.7-197.1,157.7-374.6,157.7-571.7s-157.7-256.3-256.3-354.9
		c-216.9,19.7-335.1,118.3-473.1,197.1c-138,78.9-453.4,197.1-571.7,197.1c-118.3,0-236.6-59.1-236.6-59.1s-256.3-19.7-433.7,19.7
		c-177.4,39.4-394.3,335.1-492.9,374.6c-98.6,39.4-118.3,0-295.7,39.4c-177.4,39.4-276,177.4-276,177.4
		c59.1,59.1,414,453.4,690,453.4c177.4,0,335.1,0,571.7,118.3s374.6,236.6,433.7,414c59.1,177.4,138,414,177.4,552
		c39.4,138,236.6,276,335.1,354.9s157.7,177.4,138,315.4c315.4,59.1,768.8-39.4,867.4-78.9c98.6-39.4,216.9-197.1,216.9-335.1
		c0-66.4-59.1-78.9-118.3-39.4c-59.1,39.4-89.8-28.5-59.1-59.1c59.1-59.1,157.7-138,335.1-335.1
		c-118.3-315.4-374.6-532.3-453.4-650.6C13095.8,4481.2,12839.5,4422.1,12839.5,4264.4z"/>
	<path class="st0" d="M11952.4,5644.4c-98.6-78.9-188-391-276-690c-98.6-335.1-611.1-532.3-749.1-552s-394.3,19.7-630.8-177.4
		c-109.2-91-216.9-157.7-335.1-295.7c-236.6-19.7-276,118.3-374.6,197.1c-98.6,78.9-453.4,59.1-571.7,138s-374.6,197.1-709.7,138
		c-138,98.6-354.9,157.7-354.9,157.7s335.1,0,492.9,256.3c65.2,105.9,70,223.3,98.6,276c40.6,74.8,98,63,177.4,78.9
		c197.1,39.4,138,256.3,256.3,354.9c118.3,98.6,118.3,354.9,118.3,512.6c0,157.7,216.9,276,335.1,414s118.3,788.6,118.3,788.6
		s177.4,0,256.3-177.4c46.7-105,197.1-216.9,374.6-216.9c98.6,0,236.6,59.1,492.8,59.1s591.4-236.6,709.7-236.6
		s197.1,19.7,197.1,19.7c78.9-118.3,138-177.4,216.9-197.1c78.9-19.7,184.1-193.3,236.6-256.3c98.6-118.3,276-98.6,276-98.6
		C12346.7,5900.7,12051,5723.2,11952.4,5644.4z"/>
	<path class="st0" d="M8975.6,5979.5c22.3-335-138-374.6-197.1-571.7c-41.2-137.5-118.2-190.6-177.4-197.1
		c-177.4-19.7-177.4-98.6-197.1-157.7c-25.7-77.1-39.4-197.1-157.7-295.7c-161-134.2-354.9-157.7-453.4-138
		c-98.6,19.7-177.4,39.4-177.4,39.4s39.4,276-19.7,394.3c-19.7,39.4-59.1,98.6,19.7,236.6c78.9,138-59.1,256.3-59.1,414
		c0,157.7,138,256.3,138,473.1s0,394.3,19.7,650.6c18.1,235.9,157.7,315.4,157.7,512.6c0,98.6-39.4,236.6-39.4,236.6
		s98.6,19.7,315.4,39.4c216.9,19.7,276-118.3,394.3-118.3c256.3,0,276,177.4,414,177.4c256.3,0,315.4-295.7,473.1-394.3
		c-19.7-433.7-19.7-414-59.1-650.6C9330.4,6393.5,8955.9,6275.2,8975.6,5979.5z"/>
	<path class="st0" d="M1070.2,6078.1c1.4,12.7,2.3,24.4,3,35.6c82.2-29.2,230.8-75.1,351.9-75.1c315.4,0,571.7,335.1,611.1,374.6
		c39.4,39.4,39.4,78.9,118.3,78.9c118.3,0,39.4-118.3,118.3-216.9c78.9-98.6,256.3-157.7,414-216.9s354.9-157.7,433.7-256.3
		c78.9-98.6,59.1-315.4,59.1-315.4c-177.4-98.6-157.7-354.9-256.3-374.6c-98.6-19.7-118.3,59.1-177.4,59.1
		c-100.6,0-78.9-59.1-216.9-59.1c-157.7,0-177.4-78.9-295.7-78.9s-197.1,59.1-276-98.6L1806.6,4618
		c-116.6,118.5-349.5,207.7-420.9,296.9c-78.9,98.6-138,276-216.9,315.4c-78.9,39.4-177.4,236.6-98.6,414
		S1050.5,5900.7,1070.2,6078.1z"/>
	<path class="st0" d="M2272.8,4954.4c118.3,0,138,78.9,295.7,78.9c138,0,116.2,59.1,216.9,59.1c59.1,0,78.9-78.9,177.4-59.1
		c96.5,19.3,79.8,265.3,245.6,368.1c80.5-29.2,215-72.4,306.4-72.4c138,0,157.7,78.9,256.3,39.4c98.6-39.4,39.4-335.1,295.7-335.1
		c157.7,0,295.7,39.4,414,39.4c39.4,0,98.6-78.9,98.6-78.9s-280.7-111.1-492.9-256.3c-137.3-94-233.2-261.8-295.7-315.4
		c-138-118.3-71.3-218.4-138-335.1c-65.8-115.1-197.1-118.3-197.1-295.7c0-198.1-138-216.9-138-414c0-151.2-40-325.5-69-432.4
		c-168.8,21.6-209.3,98.7-325.3,176.1c-118.3,78.9-39.4,315.4-157.7,374.6c-111.5,55.8-72.1,234-98.6,295.7
		c-59.1,138-138,98.6-236.6,216.9s-226.8,74-276,98.6c-118.3,59.1-177.4,256.3-276,394.3c-9.3,13.1-20.3,25.8-32.5,38.2l150.8,316.6
		C2075.7,5013.5,2154.5,4954.4,2272.8,4954.4z"/>
	<path class="st0" d="M3573.9,3751.8c0,177.4,131.4,180.6,197.1,295.7c66.7,116.7,0,216.9,138,335.1
		c62.5,53.6,158.4,221.5,295.7,315.4c212.2,145.2,473.1,216.9,473.1,216.9s354.9,98.6,552,98.6s492.9-19.7,492.9-19.7
		s-39.4-335.1,374.6-335.1c512.6,0,512.6,78.9,690,78.9c177.4,0,236.6-157.7,374.6-157.7c84.4,0,183.3-7.4,247.6-13.1
		c-59.6-186.5-333.3-538.9-760.1-538.9c-453.4,0-394.3-276-611.1-473.1c-103.1-93.8-19.7-414-19.7-552c0-138-59.1-276-59.1-394.3
		c0-78.9,98.6-414-59.1-414c-98.6,0-177.4,98.6-276,98.6c-59.1,0-157.7-39.4-157.7-118.3c0-78.9,19.7-177.4,19.7-177.4
		c-256.3,78.9-197.1-59.1-335.1-59.1c-177.4,0-197.1,157.7-453.4,197.1c-157.1,24.2-473.1,276-473.1,276
		c-315.4-78.9-468.2-79.3-453.4,98.6c19.7,236.6-216.9,374.6-394.3,394.3c-3.4,0.4-6.5,0.9-9.8,1.4c29,106.8,69,281.2,69,432.4
		C3435.9,3535,3573.9,3553.7,3573.9,3751.8z"/>
	<path class="st0" d="M3297.9,8660.6c59.1,0,78.9-59.1,59.1-138c-19.7-78.9-39.4-98.6-19.7-236.6c19.7-138,39.4-216.9,98.6-276
		c26.5-26.5,54.3-54.9,82.8-83.6c-51.1-55-129.6-129.1-201.1-152.9c-118.3-39.4-216.9-177.4-216.9-453.4s216.9-354.9,216.9-650.6
		c0-118.3-138-157.7-138-315.4c0-124.3-116-267.8-185.5-342.7c-84,49.4-181.8,93.5-267.9,125.8c-157.7,59.1-335.1,118.3-414,216.9
		c-78.9,98.6,0,216.9-118.3,216.9c-78.9,0-118.3-39.4-157.7-78.9c-39.4-39.4-256.3-374.6-571.7-374.6
		c-121.1,0-269.7,45.9-351.9,75.1c8.5,145.2-42.4,174.2-42.4,338.9c0,118.3,216.9,473.1,335.1,611.1
		c118.3,138,374.6,394.3,552,394.3c177.4,0,354.9,177.4,433.7,374.6c78.9,197.1,276,315.4,335.1,414s59.1,276,177.4,295.7
		c118.3,19.7,157.7-98.6,236.6-98.6C3219.1,8522.6,3238.8,8660.6,3297.9,8660.6z"/>
	<path class="st0" d="M4658.2,6984.9c0-295.7-80.1-360.7,39.4-749.1c78.9-256.3,236.6-256.3,354.9-157.7
		c118.3,98.6,295.7-59.1,453.4-295.7c157.7-236.6,53.7-341.8,197.1-453.4c177.4-138,19.7-216.9,19.7-216.9s-295.7,19.7-492.9,19.7
		s-552-98.6-552-98.6s0,98.6-78.9,118.3c-78.9,19.7-256.3-39.4-414-39.4c-256.3,0-197.1,295.7-295.7,335.1
		c-98.6,39.4-118.3-39.4-256.3-39.4c-91.4,0-225.9,43.2-306.4,72.4c3.5,2.2,7,4.4,10.7,6.5c0,0,19.7,216.9-59.1,315.4
		c-35.8,44.7-96,89.4-165.8,130.5c69.5,74.9,185.5,218.4,185.5,342.7c0,157.7,138,197.1,138,315.4c0,295.7-216.9,374.6-216.9,650.6
		s98.6,414,216.9,453.4c71.5,23.8,150,97.9,201.1,152.9c130.8-131.9,277.1-271.2,390.4-271.2c138,0,78.9,138,236.6,118.3
		c157.7-19.7,315.4-39.4,315.4-39.4s2.1,2.5,5.7,6.5c32-43.3,85.8-123.4,112.5-203.6C4737.1,7339.8,4658.2,7280.6,4658.2,6984.9z"/>
	<path class="st0" d="M7615.3,6255.5c0-138-138-354.9-138-473.1s78.9-197.1,78.9-315.4s-59.1-138-59.1-236.6
		c0-157.7,78.9-276,39.4-473.1c-2-10.2-5-21.2-8.7-32.8c-64.3,5.7-163.2,13.1-247.6,13.1c-138,0-197.1,157.7-374.6,157.7
		c-177.4,0-177.4-78.9-690-78.9c-414,0-374.6,335.1-374.6,335.1s157.7,78.9-19.7,216.9c-143.5,111.6-39.4,216.9-197.1,453.4
		c-157.7,236.6-433.7,453.4-552,354.9c-118.3-98.6-177.4-157.7-256.3,98.6c-119.5,388.4-39.4,453.4-39.4,749.1
		c0,295.7,78.9,354.9,39.4,473.1c-26.7,80.2-80.6,160.3-112.5,203.6c22.4,24.5,109.4,111.8,211.1,111.8c276,0,512.6-295.7,690-295.7
		c177.4,0,216.9,256.3,394.3,256.3c177.4,0,236.6-197.1,414-138c118.3,39.4,59.1,295.7,276,295.7c177.4,0,276-98.6,374.6-98.6
		c98.6,0,118.3,19.7,216.9,19.7c98.6,0,157.7-216.9,256.3-216.9c98.6,0,216.9,19.7,216.9,19.7s39.4-138,39.4-236.6
		c0-138-157.7-374.6-157.7-571.7C7635,6649.8,7615.3,6393.5,7615.3,6255.5z"/>
	<path class="st0" d="M1563.1,4185.5c70.8,0,98.6-28.8,98.6-88.7c0-59.9-57.4-108.4-128.1-108.4s-108.4,38.7-108.4,98.6
		C1425.1,4146.8,1492.3,4185.5,1563.1,4185.5z"/>
	<path class="st0" d="M3357.1,8916.9c-96.7-16.1-157.7-10.3-157.7,98.6c0,108.9,98.6,197.1,177.4,197.1c98,0,157.7-48.8,157.7-157.7
		C3534.5,8946,3475.4,8936.6,3357.1,8916.9z"/>
	<path class="st0" d="M3278.2,9725.2c-43.6,0-59.1,78.9-78.9,157.7c-21.1,84.5,15.6,157.7,59.1,157.7c43.6,0,78.9-90.3,78.9-177.4
		C3337.4,9776.1,3321.8,9725.2,3278.2,9725.2z"/>
	<path class="st0" d="M676,5742.9c-70.5,52.9-197.1,61.8-197.1,138c0,76.2,85.2,69,226.7,69c141.5,0,189.3-38.8,226.7-88.7
		C991.4,5782.4,754.8,5683.8,676,5742.9z"/>
</g>
</svg>
